<?xml version="1.0" encoding="utf-8"?>
<!-- Generator: Adobe Illustrator 16.0.4, SVG Export Plug-In . SVG Version: 6.00 Build 0)  -->
<!DOCTYPE svg PUBLIC "-//W3C//DTD SVG 1.1//EN" "http://www.w3.org/Graphics/SVG/1.1/DTD/svg11.dtd">
<svg version="1.1" id="Layer_1" xmlns="http://www.w3.org/2000/svg" xmlns:xlink="http://www.w3.org/1999/xlink" x="0px" y="0px"
	 width="20px" height="20px" viewBox="0 0 20 20" enable-background="new 0 0 20 20" xml:space="preserve">
<g opacity="0.6">
	<path fill="#B4B4B4" d="M5.571,11.128c0.01-0.669,0.092-1.209,0.403-1.594C6.285,9.149,6.816,8.93,7.695,8.93
		c1.703,0,2.088,0.796,2.088,1.767c0,0.879-0.32,1.438-0.806,1.923L7.971,13.6c-0.146,0.146-0.357,0.34-0.422,0.53h2.234v1.282
		H5.517c0-0.896,0.229-1.723,0.971-2.48l1.135-1.154c0.33-0.327,0.458-0.575,0.458-1.062c0-0.55-0.174-0.724-0.439-0.724
		c-0.238,0-0.476,0.128-0.476,0.859v0.274L5.571,11.128L5.571,11.128z"/>
	<path fill="#B4B4B4" d="M10.184,13.489c0-0.787,0.366-1.4,1.08-1.492v-0.019c-0.76-0.185-0.959-0.742-0.959-1.311
		c0-1.035,0.584-1.739,2.086-1.739s2.088,0.704,2.088,1.739c0,0.566-0.201,1.126-0.961,1.311v0.019
		c0.776,0.138,1.08,0.771,1.08,1.492c0,1.603-0.813,2.051-2.207,2.051C11.008,15.54,10.184,15.092,10.184,13.489z M12.391,14.479
		c0.312,0,0.504-0.19,0.504-0.961c0-0.761-0.191-0.953-0.504-0.953c-0.312,0-0.504,0.192-0.504,0.953
		C11.887,14.286,12.079,14.479,12.391,14.479z M12.391,11.559c0.237,0,0.438-0.146,0.438-0.787c0-0.631-0.201-0.777-0.438-0.777
		c-0.238,0-0.438,0.146-0.438,0.777C11.95,11.411,12.152,11.559,12.391,11.559z"/>
</g>
<path fill="#B4B4B4" d="M16.473,3C16.344,2.148,15.733,1.5,15,1.5S13.656,2.148,13.527,3H13.14c-0.129-0.852-0.739-1.5-1.473-1.5
	S10.323,2.148,10.193,3H9.806C9.677,2.148,9.067,1.5,8.333,1.5S6.989,2.148,6.86,3H6.473C6.344,2.148,5.734,1.5,5,1.5
	S3.656,2.148,3.527,3H2.333v15.333h15.334V3H16.473z M15,2.5c0.177,0,0.369,0.2,0.454,0.5h-0.908C14.631,2.7,14.823,2.5,15,2.5z
	 M11.667,2.5c0.177,0,0.369,0.2,0.454,0.5h-0.909C11.298,2.7,11.49,2.5,11.667,2.5z M8.333,2.5C8.51,2.5,8.702,2.7,8.787,3H7.879
	C7.964,2.7,8.156,2.5,8.333,2.5z M5,2.5c0.177,0,0.369,0.2,0.454,0.5H4.546C4.631,2.7,4.823,2.5,5,2.5z M15.667,16.333H4.333v-9.32
	h11.334V16.333z"/>
</svg>
