<?xml version="1.0" encoding="utf-8"?>
<!-- Generator: Adobe Illustrator 16.0.4, SVG Export Plug-In . SVG Version: 6.00 Build 0)  -->
<!DOCTYPE svg PUBLIC "-//W3C//DTD SVG 1.1//EN" "http://www.w3.org/Graphics/SVG/1.1/DTD/svg11.dtd">
<svg version="1.1" id="Layer_1" xmlns="http://www.w3.org/2000/svg" xmlns:xlink="http://www.w3.org/1999/xlink" x="0px" y="0px"
	 width="20.001px" height="20px" viewBox="0 0 20.001 20" enable-background="new 0 0 20.001 20" xml:space="preserve">
<g id="full_blue_otc">
	<g id="Profile_Picture_2">
	</g>
	<g>
		<path fill="#0A4B6E" d="M5.827,7.921C5.341,7.921,5.29,8.363,5.29,10c0,1.638,0.051,2.078,0.537,2.078S6.364,11.638,6.364,10
			C6.364,8.363,6.313,7.921,5.827,7.921z"/>
		<path fill="#0A4B6E" d="M10,0.5L0.5,10l9.5,9.5l9.5-9.5L10,0.5z M5.827,13.147c-1.621,0-2.175-0.882-2.175-3.147
			c0-2.265,0.554-3.147,2.175-3.147c1.62,0,2.175,0.882,2.175,3.147C8.002,12.266,7.447,13.147,5.827,13.147z M12.068,8.312h-1.194
			v4.718H9.288V8.312H8.094v-1.34h3.975V8.312z M14.335,13.147c-1.783,0-2.176-0.891-2.176-3.147c0-2.316,0.529-3.147,2.176-3.147
			c1.433,0,1.971,0.747,1.971,1.917v0.382H14.77V8.812c0-0.688-0.128-0.891-0.435-0.891c-0.486,0-0.537,0.441-0.537,2.079
			c0,1.638,0.051,2.078,0.537,2.078c0.393,0,0.478-0.339,0.478-1.484h1.535v0.45C16.348,12.74,15.35,13.147,14.335,13.147z"/>
	</g>
</g>
</svg>
