<?xml version="1.0" encoding="utf-8"?>
<!-- Generator: Adobe Illustrator 16.0.4, SVG Export Plug-In . SVG Version: 6.00 Build 0)  -->
<!DOCTYPE svg PUBLIC "-//W3C//DTD SVG 1.1//EN" "http://www.w3.org/Graphics/SVG/1.1/DTD/svg11.dtd">
<svg version="1.1" id="Layer_1" xmlns="http://www.w3.org/2000/svg" xmlns:xlink="http://www.w3.org/1999/xlink" x="0px" y="0px"
	 width="30px" height="30px" viewBox="0 0 30 30" enable-background="new 0 0 30 30" xml:space="preserve">
<g id="twitter">
	<path fill="#0A4B6E" d="M26,8.131c-0.809,0.36-1.68,0.605-2.592,0.716c0.932-0.563,1.647-1.453,1.984-2.515
		c-0.873,0.521-1.838,0.898-2.866,1.104C21.703,6.552,20.529,6,19.231,6c-2.493,0-4.513,2.034-4.513,4.544
		c0,0.356,0.039,0.702,0.115,1.035c-3.75-0.189-7.076-1.998-9.303-4.747C5.144,7.502,4.92,8.283,4.92,9.116
		c0,1.576,0.797,2.968,2.008,3.782c-0.739-0.024-1.436-0.229-2.043-0.568c-0.002,0.02-0.002,0.038-0.002,0.057
		c0,2.202,1.557,4.039,3.621,4.456c-0.379,0.104-0.777,0.159-1.188,0.159c-0.291,0-0.574-0.027-0.85-0.081
		c0.574,1.806,2.241,3.119,4.217,3.156c-1.546,1.219-3.491,1.944-5.606,1.944C4.713,22.021,4.354,22,4,21.958
		C5.997,23.247,8.37,24,10.919,24c8.302,0,12.842-6.925,12.842-12.929c0-0.196-0.004-0.394-0.013-0.588
		C24.63,9.842,25.395,9.042,26,8.131z"/>
</g>
</svg>
