<?xml version="1.0" encoding="utf-8"?>
<!-- Generator: Adobe Illustrator 16.0.4, SVG Export Plug-In . SVG Version: 6.00 Build 0)  -->
<!DOCTYPE svg PUBLIC "-//W3C//DTD SVG 1.1//EN" "http://www.w3.org/Graphics/SVG/1.1/DTD/svg11.dtd">
<svg version="1.1" id="Layer_1" xmlns="http://www.w3.org/2000/svg" xmlns:xlink="http://www.w3.org/1999/xlink" x="0px" y="0px"
	 width="20px" height="20px" viewBox="0 0 20 20" enable-background="new 0 0 20 20" xml:space="preserve">
<g id="rx_blue_icon">
	<g>
		<path fill="#0A4B6E" d="M8.676,6.272H8.44v2.219h0.236c0.797,0,1.693-0.142,1.693-1.109C10.37,6.413,9.473,6.272,8.676,6.272z"/>
		<path fill="#0A4B6E" d="M2,2v16h16v-0.5h-2.976l-1.644-1.796L11.737,17.5H8.762l3.188-3.282L8.465,9.979H8.44v3.425H6V4.5h3.646
			c1.854,0,3.262,0.839,3.262,2.739c0,1.228-0.722,2.291-2.053,2.516l2.204,2.585l0.322,0.354l1.146-1.253h2.924l-2.638,2.776
			L18,17.5V2H2z"/>
	</g>
</g>
</svg>
