<?xml version="1.0" encoding="utf-8"?>
<!-- Generator: Adobe Illustrator 16.0.4, SVG Export Plug-In . SVG Version: 6.00 Build 0)  -->
<!DOCTYPE svg PUBLIC "-//W3C//DTD SVG 1.1//EN" "http://www.w3.org/Graphics/SVG/1.1/DTD/svg11.dtd">
<svg version="1.1" id="Layer_1" xmlns="http://www.w3.org/2000/svg" xmlns:xlink="http://www.w3.org/1999/xlink" x="0px" y="0px"
	 width="20px" height="20px" viewBox="0 0 20 20" enable-background="new 0 0 20 20" xml:space="preserve">
<g id="Menu_2">
	<g>
		<g>
			<g>
				<path fill="#0A4B6E" d="M17,6c0,0.55-0.45,1-1,1H4C3.45,7,3,6.55,3,6V5c0-0.55,0.45-1,1-1h12c0.55,0,1,0.45,1,1V6z"/>
			</g>
			<g>
				<path fill="#0A4B6E" d="M17,11c0,0.55-0.45,1-1,1H4c-0.55,0-1-0.45-1-1v-1c0-0.55,0.45-1,1-1h12c0.55,0,1,0.45,1,1V11z"/>
			</g>
			<g>
				<path fill="#0A4B6E" d="M17,16c0,0.55-0.45,1-1,1H4c-0.55,0-1-0.45-1-1v-1c0-0.55,0.45-1,1-1h12c0.55,0,1,0.45,1,1V16z"/>
			</g>
		</g>
	</g>
	<rect display="none" fill="none" width="20" height="20"/>
	<g id="story_10">
	</g>
	<g id="ico_x5F_campaign_7">
	</g>
</g>
</svg>
