<?xml version="1.0" encoding="utf-8"?>
<!-- Generator: Adobe Illustrator 16.0.4, SVG Export Plug-In . SVG Version: 6.00 Build 0)  -->
<!DOCTYPE svg PUBLIC "-//W3C//DTD SVG 1.1//EN" "http://www.w3.org/Graphics/SVG/1.1/DTD/svg11.dtd">
<svg version="1.1" id="Layer_1" xmlns="http://www.w3.org/2000/svg" xmlns:xlink="http://www.w3.org/1999/xlink" x="0px" y="0px"
	 width="20px" height="20px" viewBox="0 0 20 20" enable-background="new 0 0 20 20" xml:space="preserve">
<symbol  id="Menu_2" viewBox="-10 -10 20 20">
	<g>
		<g>
			<g>
				<path fill="#0A4B6E" d="M7,4c0-0.552-0.448-1-1-1H-6c-0.552,0-1,0.448-1,1v1c0,0.552,0.448,1,1,1H6c0.552,0,1-0.448,1-1V4z"/>
			</g>
			<g>
				<path fill="#0A4B6E" d="M7-1c0-0.552-0.448-1-1-1H-6c-0.552,0-1,0.448-1,1v1c0,0.552,0.448,1,1,1H6c0.552,0,1-0.448,1-1V-1z"/>
			</g>
			<g>
				<path fill="#0A4B6E" d="M7-6c0-0.552-0.448-1-1-1H-6c-0.552,0-1,0.448-1,1v1c0,0.552,0.448,1,1,1H6c0.552,0,1-0.448,1-1V-6z"/>
			</g>
		</g>
	</g>
	<polygon fill="none" points="10,-10 -10,-10 -10,10 10,10 	"/>
	<polygon display="none" fill="none" points="-10,10 10,10 10,-10 -10,-10 	"/>
	<g id="story_10_3_">
	</g>
	<g id="ico_x5F_campaign_7_6_">
	</g>
</symbol>
<symbol  id="New_Symbol" viewBox="-15 -15 30 30">
	<g id="neutral_1_">
		<polygon fill="none" points="15,-15 -15,-15 -15,15 15,15 		"/>
		<path opacity="0.75" fill="#B4B4B4" enable-background="new    " d="M9.375,0.001c0,5.178-4.196,9.375-9.376,9.375
			c-5.177,0-9.375-4.197-9.375-9.375s4.198-9.375,9.375-9.375C5.179-9.374,9.375-5.177,9.375,0.001"/>
		<g>
			<g>
				<defs>
					<path id="SVGID_1_" d="M4.457-5.92C2.412-5.183,1.742-4.548,1.742-3.172c0,0.071,0.019,0.112,0.028,0.167
						c1.188,1.016-4.526,1.113-3.504-0.021C-1.727-3.075-1.71-3.11-1.71-3.173c0-1.375-0.671-2.01-2.748-2.748
						c-2.044-0.771-3.418-1.54-3.418-2.043c0-0.538,0-1.777,0-1.777h15.75c0,0,0,1.239,0,1.777C7.875-7.46,6.534-6.691,4.457-5.92z"
						/>
				</defs>
				<clipPath id="SVGID_2_">
					<use xlink:href="#SVGID_1_"  overflow="visible"/>
				</clipPath>
				<linearGradient id="SVGID_3_" gradientUnits="userSpaceOnUse" x1="-9.3208" y1="-0.0889" x2="9.3208" y2="-0.0889">
					<stop  offset="0" style="stop-color:#ECEDEC"/>
					<stop  offset="1" style="stop-color:#D0D0CF"/>
				</linearGradient>
				<path clip-path="url(#SVGID_2_)" fill="url(#SVGID_3_)" d="M9.321-0.088C9.321,5.06,5.148,9.233,0,9.233
					S-9.321,5.06-9.321-0.088c0-5.149,4.173-9.323,9.321-9.323S9.321-5.238,9.321-0.088"/>
			</g>
		</g>
		<linearGradient id="SVGID_4_" gradientUnits="userSpaceOnUse" x1="-4.2559" y1="0.2373" x2="4.2559" y2="0.2373">
			<stop  offset="0" style="stop-color:#ECEDEC"/>
			<stop  offset="1" style="stop-color:#D0D0CF"/>
		</linearGradient>
		<path fill="url(#SVGID_4_)" d="M4.256,0.983c0-2.352-1.904-5.749-4.256-5.749s-4.256,3.396-4.256,5.749
			C-4.256,3.334-2.352,5.24,0,5.24S4.256,3.334,4.256,0.983z"/>
		<path fill="none" stroke="#969696" stroke-width="0.75" stroke-miterlimit="10" d="M9.375,0c0,5.178-4.197,9.375-9.375,9.375
			S-9.375,5.178-9.375,0S-5.178-9.375,0-9.375S9.375-5.178,9.375,0"/>
	</g>
</symbol>
<symbol  id="New_Symbol_1" viewBox="-10 -10 20 20">
	<g id="corner_5_9_">
		<g id="ico_x5F_campaign_7_5_">
		</g>
		<g id="_x3E_6-B_2_">
			<g id="corner_5_10_">
				<polygon fill="none" points="10,-10 -10,-10 -10,10 10,10 				"/>
				<polygon fill="#B4B4B4" points="-0.5,3 4.125,3 1.813,-0.5 -0.5,-4 -2.813,-0.5 -5.125,3 				"/>
			</g>
		</g>
	</g>
</symbol>
<symbol  id="New_Symbol_10" viewBox="-10 -10 20 20">
	<g id="k_x5F_edit_2_1_">
		<path fill="#B4B4B4" d="M-6.191-2.938l-0.943-4.195l4.197,0.944l7.141,7.142L0.952,4.206L-6.191-2.938z M6.265,4.922L4.923,6.266
			C4.397,6.792,3.542,6.795,3.013,6.27L1.877,5.131L5.13,1.879l1.136,1.137C6.794,3.542,6.792,4.395,6.265,4.922z"/>
		<polygon fill="none" points="-10,10 10,10 10,-10 -10,-10 		"/>
		<g id="Menu_3_3_">
		</g>
		<g id="ico_x5F_campaign_7_3_">
		</g>
	</g>
</symbol>
<symbol  id="New_Symbol_12" viewBox="-10 -10 20 20">
	<polygon fill="#B4B4B4" points="9,3 1,3 1,5 9,5 	"/>
	<polygon fill="#B4B4B4" points="9,0 1,0 1,2 9,2 	"/>
	<polygon fill="#B4B4B4" points="9,-3 1,-3 1,-1 9,-1 	"/>
	<polygon fill="#B4B4B4" points="9,-6 1,-6 1,-4 9,-4 	"/>
	<polygon fill="#B4B4B4" points="-1,3 -9,3 -9,5 -1,5 	"/>
	<polygon fill="#B4B4B4" points="-1,0 -9,0 -9,2 -1,2 	"/>
	<polygon fill="#B4B4B4" points="-1,-3 -9,-3 -9,-1 -1,-1 	"/>
	<polygon fill="#B4B4B4" points="-1,-6 -9,-6 -9,-4 -1,-4 	"/>
	<polygon fill="none" points="10,-10 -10,-10 -10,10 10,10 	"/>
</symbol>
<symbol  id="New_Symbol_13" viewBox="-10 -10 20 20">
	<polygon fill="#0A4B6E" points="9,3 1,3 1,5 9,5 	"/>
	<polygon fill="#0A4B6E" points="9,0 1,0 1,2 9,2 	"/>
	<polygon fill="#0A4B6E" points="9,-3 1,-3 1,-1 9,-1 	"/>
	<polygon fill="#0A4B6E" points="9,-6 1,-6 1,-4 9,-4 	"/>
	<polygon fill="#0A4B6E" points="-1,3 -9,3 -9,5 -1,5 	"/>
	<polygon fill="#0A4B6E" points="-1,0 -9,0 -9,2 -1,2 	"/>
	<polygon fill="#0A4B6E" points="-1,-3 -9,-3 -9,-1 -1,-1 	"/>
	<polygon fill="#0A4B6E" points="-1,-6 -9,-6 -9,-4 -1,-4 	"/>
	<polygon fill="none" points="10,-10 -10,-10 -10,10 10,10 	"/>
</symbol>
<symbol  id="New_Symbol_14" viewBox="-10 -10 20 20">
	<path fill="#871409" d="M5,0c0-2.762-2.238-5-5-5s-5,2.238-5,5s2.238,5,5,5S5,2.762,5,0z"/>
	<polygon fill="none" points="10,-10 -10,-10 -10,10 10,10 	"/>
</symbol>
<symbol  id="New_Symbol_15" viewBox="-10 -10 20 20">
	<path fill="#B4B4B4" d="M5,0c0-2.762-2.238-5-5-5s-5,2.238-5,5s2.238,5,5,5S5,2.762,5,0z"/>
	<polygon fill="none" points="10,-10 -10,-10 -10,10 10,10 	"/>
</symbol>
<symbol  id="New_Symbol_16" viewBox="-10 -10 20 20">
	<path fill="#B4B4B4" d="M7.333,4.579c-0.539-0.24-1.119-0.403-1.728-0.478c0.621,0.375,1.099,0.97,1.323,1.677
		C6.347,5.431,5.703,5.18,5.018,5.043C4.469,5.632,3.687,6,2.821,6C1.159,6-0.188,4.644-0.188,2.971
		c0-0.236,0.026-0.468,0.077-0.689c-2.5,0.127-4.718,1.332-6.202,3.165C-6.571,4.999-6.72,4.478-6.72,3.923
		c0-1.051,0.531-1.979,1.338-2.521C-5.874,1.417-6.339,1.554-6.743,1.78c-0.002-0.015-0.002-0.025-0.002-0.038
		c0-1.468,1.038-2.692,2.414-2.971c-0.252-0.069-0.518-0.106-0.792-0.106c-0.194,0-0.383,0.019-0.566,0.055
		c0.383-1.204,1.494-2.08,2.812-2.104C-3.908-4.196-5.205-4.68-6.615-4.68c-0.242,0-0.481,0.014-0.717,0.042
		C-6.002-5.498-4.42-6-2.721-6c5.534,0,8.562,4.616,8.562,8.619c0,0.131-0.003,0.263-0.009,0.392C6.42,3.438,6.93,3.972,7.333,4.579
		z"/>
	<polygon fill="none" points="10,-10 -10,-10 -10,10 10,10 	"/>
</symbol>
<symbol  id="New_Symbol_17" viewBox="-10 -10 20 20">
	<polygon fill="none" points="10,-10 -10,-10 -10,10 10,10 	"/>
	<g opacity="0.7">
		<g>
			<line fill="none" stroke="#AFC3CD" stroke-miterlimit="10" x1="-6.5" y1="2.426" x2="-6" y2="2.426"/>
			
				<line fill="none" stroke="#AFC3CD" stroke-miterlimit="10" stroke-dasharray="0.9333,0.9333" x1="-5.067" y1="2.426" x2="7.533" y2="2.426"/>
			<line fill="none" stroke="#AFC3CD" stroke-miterlimit="10" x1="8" y1="2.426" x2="8.5" y2="2.426"/>
		</g>
	</g>
	<g opacity="0.7">
		<g>
			<line fill="none" stroke="#AFC3CD" stroke-miterlimit="10" x1="-6.5" y1="-0.574" x2="-6" y2="-0.574"/>
			
				<line fill="none" stroke="#AFC3CD" stroke-miterlimit="10" stroke-dasharray="0.9333,0.9333" x1="-5.067" y1="-0.574" x2="7.533" y2="-0.574"/>
			<line fill="none" stroke="#AFC3CD" stroke-miterlimit="10" x1="8" y1="-0.574" x2="8.5" y2="-0.574"/>
		</g>
	</g>
	<g opacity="0.7">
		<g>
			<line fill="none" stroke="#AFC3CD" stroke-miterlimit="10" x1="-6.5" y1="-3.574" x2="-6" y2="-3.574"/>
			
				<line fill="none" stroke="#AFC3CD" stroke-miterlimit="10" stroke-dasharray="0.9333,0.9333" x1="-5.067" y1="-3.574" x2="7.533" y2="-3.574"/>
			<line fill="none" stroke="#AFC3CD" stroke-miterlimit="10" x1="8" y1="-3.574" x2="8.5" y2="-3.574"/>
		</g>
	</g>
	<g opacity="0.7">
		<g>
			<line fill="none" stroke="#AFC3CD" stroke-miterlimit="10" x1="-6.5" y1="-6.574" x2="-6" y2="-6.574"/>
			
				<line fill="none" stroke="#AFC3CD" stroke-miterlimit="10" stroke-dasharray="0.9333,0.9333" x1="-5.067" y1="-6.574" x2="7.533" y2="-6.574"/>
			<line fill="none" stroke="#AFC3CD" stroke-miterlimit="10" x1="8" y1="-6.574" x2="8.5" y2="-6.574"/>
		</g>
	</g>
	<polygon fill="none" stroke="#AFC3CD" stroke-miterlimit="10" points="7.5,-8 -6.5,-8 -6.5,6 7.5,6 	"/>
	<polygon fill="#0D4862" points="8,6.191 -7,6.191 -7,8.191 8,8.191 	"/>
	<path id="phone_1_" fill="#0A4B6E" d="M0.465,5.587C-0.822,6.034-3.529,4.644-6,2.174c-2.3-2.301-3.663-4.808-3.479-6.181
		c-0.01-0.664,0.244-1.351,0.772-1.877c0.986-0.987,1.811-0.334,2.723,0.579c0.912,0.911,1.566,1.736,0.58,2.724
		c-0.408,0.408-0.912,0.648-1.428,0.736c0.622,0.816,1.4,1.69,2.28,2.569c0.862,0.862,1.72,1.628,2.522,2.242
		c0.086-0.517,0.326-1.024,0.737-1.438c0.987-0.985,1.812-0.332,2.724,0.58c0.912,0.912,1.566,1.736,0.58,2.725
		C1.571,5.274,1.021,5.521,0.465,5.587z"/>
</symbol>
<symbol  id="New_Symbol_18" viewBox="-10 -10 20 20">
	<polygon fill="none" points="10,-10 -10,-10 -10,10 10,10 	"/>
	<g id="notes_copy_1_">
		<g opacity="0.7">
			<g>
				<line fill="none" stroke="#AFC3CD" stroke-miterlimit="10" x1="-7" y1="2.426" x2="-6.5" y2="2.426"/>
				<line fill="none" stroke="#AFC3CD" stroke-miterlimit="10" stroke-dasharray="1,1" x1="-5.5" y1="2.426" x2="6" y2="2.426"/>
				<line fill="none" stroke="#AFC3CD" stroke-miterlimit="10" x1="6.5" y1="2.426" x2="7" y2="2.426"/>
			</g>
		</g>
		<g opacity="0.7">
			<g>
				<line fill="none" stroke="#AFC3CD" stroke-miterlimit="10" x1="-7" y1="-0.574" x2="-6.5" y2="-0.574"/>
				<line fill="none" stroke="#AFC3CD" stroke-miterlimit="10" stroke-dasharray="1,1" x1="-5.5" y1="-0.574" x2="6" y2="-0.574"/>
				<line fill="none" stroke="#AFC3CD" stroke-miterlimit="10" x1="6.5" y1="-0.574" x2="7" y2="-0.574"/>
			</g>
		</g>
		<g opacity="0.7">
			<g>
				<line fill="none" stroke="#AFC3CD" stroke-miterlimit="10" x1="-7" y1="-3.574" x2="-6.5" y2="-3.574"/>
				<line fill="none" stroke="#AFC3CD" stroke-miterlimit="10" stroke-dasharray="1,1" x1="-5.5" y1="-3.574" x2="6" y2="-3.574"/>
				<line fill="none" stroke="#AFC3CD" stroke-miterlimit="10" x1="6.5" y1="-3.574" x2="7" y2="-3.574"/>
			</g>
		</g>
		<g opacity="0.7">
			<g>
				<line fill="none" stroke="#AFC3CD" stroke-miterlimit="10" x1="-7" y1="-6.574" x2="-6.5" y2="-6.574"/>
				<line fill="none" stroke="#AFC3CD" stroke-miterlimit="10" stroke-dasharray="1,1" x1="-5.5" y1="-6.574" x2="6" y2="-6.574"/>
				<line fill="none" stroke="#AFC3CD" stroke-miterlimit="10" x1="6.5" y1="-6.574" x2="7" y2="-6.574"/>
			</g>
		</g>
		<path fill="none" stroke="#AFC3CD" stroke-miterlimit="10" d="M7,2.194"/>
		<path fill="none" stroke="#AFC3CD" stroke-miterlimit="10" d="M7,5.809"/>
		<polygon fill="none" stroke="#AFC3CD" stroke-miterlimit="10" points="7,-8 -7,-8 -7,6 7,6 		"/>
		<polygon fill="#0D4862" points="7.5,6.191 -7.5,6.191 -7.5,8.191 7.5,8.191 		"/>
	</g>
	<g id="chart_4_">
		<g>
			<g>
				<line fill="none" stroke="#0D4862" stroke-miterlimit="10" x1="-7" y1="-4.062" x2="-4.5" y2="-2"/>
				<g>
					<path fill="#0D4862" d="M-3.901-2.725c0.399,0.33,0.457,0.923,0.126,1.322c-0.33,0.399-0.923,0.457-1.323,0.126
						c-0.399-0.33-0.457-0.923-0.126-1.322C-4.895-2.998-4.302-3.056-3.901-2.725z"/>
				</g>
			</g>
		</g>
	</g>
	<g id="chart_3_">
		<g>
			<g>
				<line fill="none" stroke="#0D4862" stroke-miterlimit="10" x1="-4.5" y1="-2" x2="-0.5" y2="-1"/>
				<g>
					<path fill="#0D4862" d="M-0.272-1.912c0.504,0.126,0.811,0.637,0.685,1.14c-0.126,0.505-0.637,0.812-1.14,0.686
						c-0.504-0.126-0.811-0.637-0.685-1.14C-1.286-1.731-0.775-2.038-0.272-1.912z"/>
				</g>
			</g>
		</g>
	</g>
	<g id="chart_2_">
		<g>
			<g>
				<line fill="none" stroke="#0D4862" stroke-miterlimit="10" x1="-0.5" y1="-1" x2="3.5" y2="3.5"/>
				<g>
					<path fill="#0D4862" d="M4.202,2.876c0.345,0.388,0.311,0.981-0.078,1.326C3.736,4.547,3.143,4.513,2.798,4.124
						C2.453,3.736,2.487,3.143,2.876,2.798C3.264,2.453,3.857,2.487,4.202,2.876z"/>
				</g>
			</g>
		</g>
	</g>
	<g id="chart_1_">
		<g>
			<g>
				<line fill="none" stroke="#0D4862" stroke-miterlimit="10" x1="3.5" y1="3.5" x2="6" y2="-1"/>
				<g>
					<path fill="#0D4862" d="M5.179-1.456C5.431-1.91,6.003-2.074,6.456-1.821C6.91-1.569,7.074-0.997,6.821-0.544
						C6.569-0.09,5.997,0.074,5.544-0.179C5.09-0.431,4.926-1.003,5.179-1.456z"/>
				</g>
			</g>
		</g>
	</g>
</symbol>
<symbol  id="New_Symbol_19" viewBox="-10 -10 20 20">
	<polygon fill="none" points="10,-10 -10,-10 -10,10 10,10 	"/>
	<g id="notes_1_">
		<g id="ico_x5F_campaign_copy_1_">
		</g>
		<g opacity="0.7">
			<g>
				<line fill="none" stroke="#AFC3CD" stroke-miterlimit="10" x1="-7.5" y1="2.426" x2="-7" y2="2.426"/>
				
					<line fill="none" stroke="#AFC3CD" stroke-miterlimit="10" stroke-dasharray="0.9333,0.9333" x1="-6.067" y1="2.426" x2="6.533" y2="2.426"/>
				<line fill="none" stroke="#AFC3CD" stroke-miterlimit="10" x1="7" y1="2.426" x2="7.5" y2="2.426"/>
			</g>
		</g>
		<g opacity="0.7">
			<g>
				<line fill="none" stroke="#AFC3CD" stroke-miterlimit="10" x1="-7.5" y1="-0.574" x2="-7" y2="-0.574"/>
				
					<line fill="none" stroke="#AFC3CD" stroke-miterlimit="10" stroke-dasharray="0.9333,0.9333" x1="-6.067" y1="-0.574" x2="6.533" y2="-0.574"/>
				<line fill="none" stroke="#AFC3CD" stroke-miterlimit="10" x1="7" y1="-0.574" x2="7.5" y2="-0.574"/>
			</g>
		</g>
		<g opacity="0.7">
			<g>
				<line fill="none" stroke="#AFC3CD" stroke-miterlimit="10" x1="-7.5" y1="-3.574" x2="-7" y2="-3.574"/>
				
					<line fill="none" stroke="#AFC3CD" stroke-miterlimit="10" stroke-dasharray="0.9333,0.9333" x1="-6.067" y1="-3.574" x2="6.533" y2="-3.574"/>
				<line fill="none" stroke="#AFC3CD" stroke-miterlimit="10" x1="7" y1="-3.574" x2="7.5" y2="-3.574"/>
			</g>
		</g>
		<g opacity="0.7">
			<g>
				<line fill="none" stroke="#AFC3CD" stroke-miterlimit="10" x1="-7.5" y1="-6.574" x2="-7" y2="-6.574"/>
				
					<line fill="none" stroke="#AFC3CD" stroke-miterlimit="10" stroke-dasharray="0.9333,0.9333" x1="-6.067" y1="-6.574" x2="6.533" y2="-6.574"/>
				<line fill="none" stroke="#AFC3CD" stroke-miterlimit="10" x1="7" y1="-6.574" x2="7.5" y2="-6.574"/>
			</g>
		</g>
		<path fill="none" stroke="#AFC3CD" stroke-miterlimit="10" d="M6.5,2.194"/>
		<path fill="none" stroke="#AFC3CD" stroke-miterlimit="10" d="M6.5,5.809"/>
		<polyline fill="none" stroke="#AFC3CD" stroke-miterlimit="10" points="6.5,2.627 6.5,-8 -7.5,-8 -7.5,6 7,6 		"/>
		<polygon fill="#0D4862" points="7,6.191 -8,6.191 -8,8.191 7,8.191 		"/>
	</g>
	<path id="pencil_1_" fill="#0A4B6E" d="M-0.117-0.674l-0.707-3.147l3.148,0.709L7.68,2.243L5.24,4.685L-0.117-0.674z M9.227,5.222
		L8.219,6.229C7.824,6.624,7.183,6.626,6.787,6.232L5.935,5.378l2.44-2.438l0.852,0.853C9.623,4.187,9.62,4.826,9.227,5.222z"/>
</symbol>
<symbol  id="New_Symbol_2" viewBox="-15 -15 30 30">
	<g id="search_x5F_small_1_">
		<path fill="none" stroke="#B4B4B4" stroke-width="2" stroke-miterlimit="10" d="M2.945-1.541c2.281,2.28,2.281,5.991,0,8.271
			c-2.28,2.279-5.99,2.279-8.271,0c-2.281-2.28-2.281-5.992,0-8.271C-3.045-3.822,0.665-3.822,2.945-1.541z"/>
		<polygon fill="#B4B4B4" points="2.019,-2.08 7.498,-7.559 8.963,-6.093 3.484,-0.614 		"/>
		<g id="Search_2_2_">
			<polygon fill="none" points="15,-15 -15,-15 -15,15 15,15 			"/>
		</g>
		<g id="_x2B_swatches_2_">
		</g>
	</g>
</symbol>
<symbol  id="New_Symbol_20" viewBox="-10 -10 20 20">
	<polygon fill="none" points="10,-10 -10,-10 -10,10 10,10 	"/>
	<g>
		<g>
			<defs>
				<path id="SVGID_5_" d="M2.971-3.947c-1.363,0.492-1.81,0.915-1.81,1.832c0,0.048,0.013,0.075,0.019,0.112
					c0.793,0.677-3.017,0.742-2.335-0.014c0.004-0.033,0.017-0.058,0.017-0.1c0-0.917-0.447-1.34-1.832-1.832
					c-1.364-0.513-2.28-1.025-2.28-1.36c0-0.359,0-1.186,0-1.186h10.5c0,0,0,0.825,0,1.186C5.25-4.974,4.355-4.461,2.971-3.947z"/>
			</defs>
			<clipPath id="SVGID_6_">
				<use xlink:href="#SVGID_5_"  overflow="visible"/>
			</clipPath>
			<linearGradient id="SVGID_7_" gradientUnits="userSpaceOnUse" x1="-6.2139" y1="-0.0605" x2="6.2139" y2="-0.0605">
				<stop  offset="0" style="stop-color:#ECEDEC"/>
				<stop  offset="1" style="stop-color:#D0D0CF"/>
			</linearGradient>
			<path clip-path="url(#SVGID_6_)" fill="url(#SVGID_7_)" d="M6.214-0.059c0,3.432-2.781,6.214-6.214,6.214
				s-6.214-2.782-6.214-6.214c0-3.435,2.781-6.217,6.214-6.217S6.214-3.492,6.214-0.059"/>
		</g>
	</g>
	<linearGradient id="SVGID_8_" gradientUnits="userSpaceOnUse" x1="-2.8369" y1="0.1582" x2="2.8369" y2="0.1582">
		<stop  offset="0" style="stop-color:#ECEDEC"/>
		<stop  offset="1" style="stop-color:#D0D0CF"/>
	</linearGradient>
	<path fill="url(#SVGID_8_)" d="M2.837,0.655c0-1.567-1.27-3.832-2.837-3.832s-2.837,2.265-2.837,3.832
		c0,1.566,1.27,2.838,2.837,2.838S2.837,2.223,2.837,0.655z"/>
	<path fill="none" stroke="#AFC3CD" stroke-miterlimit="10" d="M6.25,0c0,3.452-2.799,6.25-6.25,6.25S-6.25,3.452-6.25,0
		S-3.451-6.25,0-6.25S6.25-3.452,6.25,0"/>
	<polygon fill="#0A4B6E" points="0.662,1.756 0.662,7.505 -1.801,7.505 -1.801,3.5 -7.593,9.293 -9.336,7.548 -3.544,1.756 
		-7.55,1.757 -7.55,-0.707 -1.801,-0.707 0.662,-0.707 	"/>
</symbol>
<symbol  id="New_Symbol_3" viewBox="-15 -15 30 30">
	<g id="search_x5F_small_3_">
		<path fill="none" stroke="#0A4B6E" stroke-width="2" stroke-miterlimit="10" d="M2.945-1.541c2.281,2.28,2.281,5.991,0,8.271
			c-2.28,2.279-5.99,2.279-8.271,0c-2.281-2.28-2.281-5.992,0-8.271C-3.045-3.822,0.665-3.822,2.945-1.541z"/>
		<polygon fill="#0A4B6E" points="2.019,-2.08 7.498,-7.559 8.963,-6.093 3.484,-0.614 		"/>
		<g id="Search_2_3_">
			<polygon fill="none" points="15,-15 -15,-15 -15,15 15,15 			"/>
		</g>
		<g id="_x2B_swatches_3_">
		</g>
	</g>
</symbol>
<symbol  id="New_Symbol_4" viewBox="-15 -15 30 30">
	<polygon fill="none" points="15,15 14.999,-15 -14.998,-15 -15,15 	"/>
	<polygon fill="none" stroke="#B4B4B4" stroke-width="2" stroke-miterlimit="10" points="10,-11 -10,-11 -10,9 10,9 	"/>
	<polygon fill="#B4B4B4" points="9.988,4.481 -9.988,4.481 -9.988,8.476 9.988,8.476 	"/>
	
		<text transform="matrix(1 0 0 -1 -6.9863 -8.1182)" opacity="0.6" fill="#B4B4B4" enable-background="new    " font-family="'HelveticaNeueLTStd-BlkCn'" font-size="13.7262">28</text>
	<path fill="none" stroke="#B4B4B4" stroke-miterlimit="10" d="M-9,10c0,1.103,0.672,2,1.5,2S-6,11.103-6,10c0-1.104-0.672-2-1.5-2"
		/>
	<path fill="none" stroke="#B4B4B4" stroke-miterlimit="10" d="M-4,10c0,1.103,0.672,2,1.5,2c0.827,0,1.5-0.897,1.5-2
		c0-1.104-0.673-2-1.5-2"/>
	<path fill="none" stroke="#B4B4B4" stroke-miterlimit="10" d="M0.999,10c0,1.103,0.673,2,1.501,2S4,11.103,4,10
		c0-1.104-0.672-2-1.5-2"/>
	<path fill="none" stroke="#B4B4B4" stroke-miterlimit="10" d="M6,10c0,1.103,0.672,2,1.5,2S9,11.103,9,10c0-1.104-0.672-2-1.5-2"/>
</symbol>
<symbol  id="New_Symbol_7" viewBox="-10 -10 20 20">
	<g id="corner_5_12_">
		<g id="ico_x5F_campaign_7_7_">
		</g>
		<g id="_x3E_6-B_3_">
			<g id="corner_5_13_">
				<polygon fill="none" points="10,-10 -10,-10 -10,10 10,10 				"/>
				<polygon fill="#F5F5F5" points="-0.5,3 4.125,3 1.813,-0.5 -0.5,-4 -2.813,-0.5 -5.125,3 				"/>
			</g>
		</g>
	</g>
</symbol>
<symbol  id="New_Symbol_8" viewBox="-10 -10 20 20">
	<g id="settings_3_1_">
		<path fill="#B4B4B4" d="M5.389,1.949C5.275,2.262,5.139,2.57,4.967,2.867C4.795,3.166,4.596,3.439,4.383,3.691l0.674,1.541
			L4.895,5.835L2.603,7.157l-0.604-0.16L1.006,5.648c-0.658,0.118-1.34,0.116-2.013-0.005l-0.995,1.352l-0.603,0.161l-2.292-1.322
			l-0.162-0.602l0.676-1.543C-4.822,3.168-5.162,2.58-5.392,1.951l-1.669-0.187L-7.5,1.324l-0.002-2.646l0.443-0.442l1.671-0.187
			c0.111-0.311,0.248-0.619,0.42-0.916c0.172-0.299,0.37-0.571,0.584-0.824L-5.06-5.23l0.162-0.603l2.294-1.323l0.602,0.158
			l0.995,1.354C-0.349-5.76,0.332-5.76,1.004-5.643L2-6.998l0.604-0.158l2.292,1.322L5.057-5.23L4.383-3.691
			c0.441,0.523,0.781,1.111,1.01,1.742l1.664,0.185l0.441,0.442L7.496,1.324L7.059,1.766L5.389,1.949z M2.789,1.61
			C3.678,0.07,3.15-1.9,1.609-2.789C0.07-3.678-1.9-3.15-2.79-1.61C-3.679-0.07-3.15,1.9-1.611,2.789
			C-0.07,3.678,1.898,3.151,2.789,1.61z"/>
		<g opacity="0">
			<polygon fill="none" points="10,10 10,-10 -10,-10 -10,10 			"/>
		</g>
	</g>
</symbol>
<symbol  id="New_Symbol_9" viewBox="-10 -10 20 20">
	<g id="settings_3_3_">
		<path fill="#0A4B6E" d="M5.389,1.949C5.275,2.262,5.139,2.57,4.967,2.867C4.795,3.166,4.596,3.439,4.383,3.691l0.674,1.541
			L4.895,5.835L2.603,7.157l-0.604-0.16L1.006,5.648c-0.658,0.118-1.34,0.116-2.013-0.005l-0.995,1.352l-0.603,0.161l-2.292-1.322
			l-0.162-0.602l0.676-1.543C-4.822,3.168-5.162,2.58-5.392,1.951l-1.669-0.187L-7.5,1.324l-0.002-2.646l0.443-0.442l1.671-0.187
			c0.111-0.311,0.248-0.619,0.42-0.916c0.172-0.299,0.37-0.571,0.584-0.824L-5.06-5.23l0.162-0.603l2.294-1.323l0.602,0.158
			l0.995,1.354C-0.349-5.76,0.332-5.76,1.004-5.643L2-6.998l0.604-0.158l2.292,1.322L5.057-5.23L4.383-3.691
			c0.441,0.523,0.781,1.111,1.01,1.742l1.664,0.185l0.441,0.442L7.496,1.324L7.059,1.766L5.389,1.949z M2.789,1.61
			C3.678,0.07,3.15-1.9,1.609-2.789C0.07-3.678-1.9-3.15-2.79-1.61C-3.679-0.07-3.15,1.9-1.611,2.789
			C-0.07,3.678,1.898,3.151,2.789,1.61z"/>
		<g opacity="0">
			<polygon fill="none" points="10,10 10,-10 -10,-10 -10,10 			"/>
		</g>
	</g>
</symbol>
<symbol  id="blue_mailbox" viewBox="-15 -15 30 30">
	<polygon fill="none" points="15,-15 -15,-15 -15,15 15,15 	"/>
	<g id="ico_x5F_campaign_3_1_">
		<polygon fill="#0A4B6E" points="-10.5,8.849 0,-2.302 10.5,8.849 		"/>
		<polygon fill="#0A4B6E" points="-11,7.396 0,-4.728 11,7.396 11,-8.849 -11,-8.849 		"/>
	</g>
</symbol>
<symbol  id="corner_11" viewBox="-10 -10 20 20">
	<polygon fill="#0A4B6E" points="6.5,-1.692 0.002,3.5 0.002,3.499 0,3.5 -6.5,-1.69 -5.249,-3.499 0,0.682 5.249,-3.5 	"/>
	<polygon fill="none" points="-10,-10 -10,10 10,10 10,-10 	"/>
	<g id="corner_21_4_">
	</g>
</symbol>
<symbol  id="corner_12" viewBox="-10 -10 20 20">
	<polygon fill="#0A4B6E" points="4.691,6.5 -0.5,0.002 -0.499,0.002 -0.5,0 4.689,-6.5 6.499,-5.249 2.318,0 6.5,5.249 	"/>
	<polygon fill="#0A4B6E" points="-1.309,6.5 -6.5,0.002 -6.499,0.002 -6.5,0 -1.311,-6.5 0.499,-5.249 -3.682,0 0.5,5.249 	"/>
	<polygon fill="none" points="10,-10 -10,-10 -10,10 10,10 	"/>
	<g id="corner_5_2_">
	</g>
</symbol>
<symbol  id="corner_14" viewBox="-15 -15 30 30">
	<polygon fill="none" points="15,15 14.999,-15 -14.998,-15 -15,15 	"/>
	<g id="ico_x5F_campaign_1_">
		<polygon fill="none" stroke="#0D4862" stroke-width="2" stroke-miterlimit="10" points="10,-11 -10,-11 -10,9 10,9 		"/>
		<polygon fill="#0D4862" points="9.988,4.481 -9.988,4.481 -9.988,8.476 9.988,8.476 		"/>
	</g>
	
		<text transform="matrix(1 0 0 -1 -6.9863 -8.1182)" opacity="0.5" fill="#0D4862" enable-background="new    " font-family="'HelveticaNeueLTStd-BlkCn'" font-size="13.7262">28</text>
	<path fill="none" stroke="#B4B4B4" stroke-miterlimit="10" d="M-9,10c0,1.103,0.672,2,1.5,2S-6,11.103-6,10c0-1.104-0.672-2-1.5-2"
		/>
	<path fill="none" stroke="#B4B4B4" stroke-miterlimit="10" d="M-4,10c0,1.103,0.672,2,1.5,2c0.827,0,1.5-0.897,1.5-2
		c0-1.104-0.673-2-1.5-2"/>
	<path fill="none" stroke="#B4B4B4" stroke-miterlimit="10" d="M0.999,10c0,1.103,0.673,2,1.501,2S4,11.103,4,10
		c0-1.104-0.672-2-1.5-2"/>
	<path fill="none" stroke="#B4B4B4" stroke-miterlimit="10" d="M6,10c0,1.103,0.672,2,1.5,2S9,11.103,9,10c0-1.104-0.672-2-1.5-2"/>
</symbol>
<symbol  id="corner_16" viewBox="-20 -20 40 40">
	<polygon opacity="0.2" enable-background="new    " points="-5.132,1.773 -12.071,1.773 -12.071,8.712 -5.132,8.712 	"/>
	<polygon opacity="0.7" fill="#7191A1" enable-background="new    " points="12.104,5.084 -1.896,5.084 -1.896,7.084 12.104,7.084 	
		"/>
	<polygon opacity="0.7" fill="#7191A1" enable-background="new    " points="12.104,2.084 -1.896,2.084 -1.896,4.084 12.104,4.084 	
		"/>
	<polygon opacity="0.7" fill="#7191A1" enable-background="new    " points="12.104,-6.916 -1.896,-6.916 -1.896,-4.916 
		12.104,-4.916 	"/>
	<polygon opacity="0.7" fill="#7191A1" enable-background="new    " points="12.104,-9.916 -1.896,-9.916 -1.896,-7.916 
		12.104,-7.916 	"/>
	<polygon fill="#0D4862" points="-3.89,9.766 -5.708,10.5 -8.659,5.016 -10.76,6.996 -11.608,5.42 -7.974,2.02 	"/>
	<polygon opacity="0.2" enable-background="new    " points="-5.133,-10.5 -12.071,-10.5 -12.071,-3.561 -5.133,-3.561 	"/>
	<polygon fill="#0D4862" points="-3.89,-2.507 -5.708,-1.773 -8.659,-7.257 -10.759,-5.277 -11.608,-6.854 -7.974,-10.254 	"/>
	<polygon fill="none" points="20,-20 -20,-20 -20,20 20,20 	"/>
	<g id="story_4_1_">
	</g>
</symbol>
<symbol  id="corner_20" viewBox="-10 -10 20 20">
	<polygon fill="none" points="10,-10 -10,-10 -10,10 10,10 	"/>
	<g>
		<polyline fill="none" stroke="#0A4B6E" stroke-width="2" stroke-miterlimit="10" points="3,7 8,7 8,2 		"/>
		<line fill="none" stroke="#0A4B6E" stroke-width="2" stroke-miterlimit="10" x1="0" y1="-1" x2="8" y2="7"/>
	</g>
	<g id="corner_5_3_">
	</g>
	<polyline fill="none" stroke="#0A4B6E" stroke-width="2" stroke-miterlimit="10" points="6,1.375 6,-5 -6,-5 -6,5 2.4,5 	"/>
</symbol>
<symbol  id="corner_21" viewBox="-10 -10 20 20">
	<polygon fill="#0A4B6E" points="6.5,-4.725 0.002,0.467 0.002,0.466 0,0.467 -6.5,-4.723 -5.249,-6.532 0,-2.352 5.249,-6.533 	"/>
	<polygon fill="#0A4B6E" points="6.5,1.341 0.002,6.533 0.002,6.532 0,6.533 -6.5,1.343 -5.249,-0.466 0,3.715 5.249,-0.467 	"/>
	<polygon fill="none" points="-10,-10 -10,10 10,10 10,-10 	"/>
	<g id="corner_5_4_">
	</g>
</symbol>
<symbol  id="corner_22" viewBox="-10 -10 20 20">
	<polygon fill="#0A4B6E" points="1.692,6.5 -3.5,0.002 -3.499,0.002 -3.5,0 1.69,-6.5 3.499,-5.249 -0.682,0 3.5,5.249 	"/>
	<polygon fill="none" points="10,-10 -10,-10 -10,10 10,10 	"/>
	<g id="corner_21_2_">
	</g>
</symbol>
<symbol  id="corner_23" viewBox="-10 -10 20 20">
	<polygon fill="#0A4B6E" points="8,1.775 1.776,1.776 1.777,8 -1.777,8 -1.777,1.776 -8,1.777 -8,-1.777 -1.777,-1.777 -1.777,-8 
		1.775,-8 1.776,-1.777 7.998,-1.777 	"/>
	<polygon fill="none" points="10,-10 -10,-10 -10,10 10,10 	"/>
	<g id="map_x5F_pointer_2_1_">
	</g>
</symbol>
<symbol  id="corner_27" viewBox="-10 -10 20 20">
	<polygon fill="none" points="10,-10 -10,-10 -10,10 10,10 	"/>
	<g id="corner_21_6_">
	</g>
	<polygon fill="#0A4B6E" points="6,1.073 -2.373,1.073 0.835,5.005 -0.93,6.198 -6,0.002 -5.999,0.002 -6,0 -0.932,-6.198 
		0.834,-5.005 -2.373,-1.073 6,-1.073 	"/>
	<g id="corner_5_8_">
	</g>
</symbol>
<symbol  id="corner_28" viewBox="-10 -10 20 20">
	<polygon fill="none" points="10,-10 -10,-10 -10,10 10,10 	"/>
	<polyline fill="none" stroke="#0A4B6E" stroke-width="2" stroke-miterlimit="10" points="6,1.375 6,-5 -6,-5 -6,5 2.4,5 	"/>
	<g>
		<polyline fill="none" stroke="#0A4B6E" stroke-width="2" stroke-miterlimit="10" points="3.39,-2 -0.999,-2 -1,2.39 		"/>
		<line fill="none" stroke="#0A4B6E" stroke-width="2" stroke-miterlimit="10" x1="7" y1="6" x2="-0.999" y2="-2"/>
	</g>
	<g id="corner_5_1_">
	</g>
</symbol>
<symbol  id="corner_29" viewBox="-10 -10 20 20">
	<polygon fill="#C0C0C0" points="5.5,3.499 3.501,5.499 0,1.999 -3.5,5.5 -5.5,3.5 -1.999,0 -5.5,-3.5 -3.5,-5.5 0,-2 3.5,-5.499 
		5.499,-3.501 2,-0.001 	"/>
	<polygon fill="none" points="10,-10 -10,-10 -10,10 10,10 	"/>
</symbol>
<symbol  id="corner_3" viewBox="-10 -10 20 20">
	<polygon fill="#C0C0C0" points="5.914,5.036 3.128,6.162 -1.396,-2.243 -4.615,0.791 -5.914,-1.625 -0.345,-6.838 	"/>
	<polygon fill="none" points="10,-10 -10,-10 -10,10 10,10 	"/>
</symbol>
<symbol  id="corner_4" viewBox="-10 -10 20 20">
	<polygon fill="#0A4B6E" points="5.5,3.499 3.501,5.499 0,1.999 -3.5,5.5 -5.5,3.5 -1.999,0 -5.5,-3.5 -3.5,-5.5 0,-2 3.5,-5.499 
		5.499,-3.501 2,-0.001 	"/>
	<polygon fill="none" points="10,-10 -10,-10 -10,10 10,10 	"/>
</symbol>
<symbol  id="corner_5" viewBox="-10 -10 20 20">
	<g id="ico_x5F_campaign_7_4_">
	</g>
	<g id="_x3E_6-B_1_">
		<g id="corner_5_6_">
			<polygon fill="none" points="10,-10 -10,-10 -10,10 10,10 			"/>
			<polygon fill="#0A4B6E" points="-0.5,3 4.125,3 1.813,-0.5 -0.5,-4 -2.813,-0.5 -5.125,3 			"/>
		</g>
	</g>
</symbol>
<symbol  id="corner_6" viewBox="-10 -10 20 20">
	<polygon fill="none" points="10,-10 -10,-10 -10,10 10,10 	"/>
	<polygon fill="#A9D19C" points="5.914,5.036 3.129,6.162 -1.396,-2.243 -4.615,0.791 -5.914,-1.625 -0.345,-6.838 	"/>
</symbol>
<symbol  id="dark_blue_printer" viewBox="-15 -15 30 30">
	<polygon fill="none" points="15,-15 -15,-15 -15,15 15,15 	"/>
	<path fill="#0A4B6E" d="M7.085-8.99L13-9V4H6v8H-6V4h-7V-9l6.094,0.01l-0.711-2.022V-12H7.679v0.986 M-5,11H5V1H-5V11z
		 M-4.455-5.98h9.303l1.164-4.438H-6.013L-4.455-5.98z"/>
	<g id="corner_23_2_">
	</g>
</symbol>
<symbol  id="double_down" viewBox="-10 -10 20 20">
	<polygon fill="#0A4B6E" points="6.5,4.725 0.002,-0.467 0.002,-0.466 0,-0.467 -6.5,4.723 -5.249,6.532 0,2.352 5.249,6.533 	"/>
	<polygon fill="#0A4B6E" points="6.5,-1.341 0.002,-6.533 0.002,-6.532 0,-6.533 -6.5,-1.343 -5.249,0.466 0,-3.715 5.249,0.467 	
		"/>
	<polygon fill="none" points="-10,10 -10,-10 10,-10 10,10 	"/>
	<g id="corner_5_7_">
	</g>
</symbol>
<symbol  id="double_right_arrow" viewBox="-10 -10 20 20">
	<polygon fill="#0A4B6E" points="-4.692,6.5 0.5,0.002 0.499,0.002 0.5,0 -4.69,-6.5 -6.499,-5.249 -2.318,0 -6.5,5.249 	"/>
	<polygon fill="#0A4B6E" points="1.308,6.5 6.5,0.002 6.499,0.002 6.5,0 1.31,-6.5 -0.499,-5.249 3.682,0 -0.5,5.249 	"/>
	<polygon fill="none" points="-10,-10 10,-10 10,10 -10,10 	"/>
	<g id="corner_5_5_">
	</g>
</symbol>
<symbol  id="down_arrow" viewBox="-10 -10 20 20">
	<polygon fill="#0A4B6E" points="-6.5,1.692 -0.002,-3.5 -0.002,-3.499 0,-3.5 6.5,1.69 5.249,3.499 0,-0.682 -5.249,3.5 	"/>
	<polygon fill="none" points="10,10 10,-10 -10,-10 -10,10 	"/>
	<g id="corner_21_3_">
	</g>
</symbol>
<symbol  id="flag_2" viewBox="-10 -10 20 20">
	<path opacity="0.5" fill="#787878" enable-background="new    " d="M5.403-0.372C5.196-0.784,2.83-2.968,1.689-1.497
		C0.091,0.565-2.024-0.372-2.024-0.372v5.713c0,0,2.115,0.938,3.714-1.125c1.14-1.471,3.506,0.713,3.713,1.125V-0.372z"/>
	<line fill="none" stroke="#C0C0C0" stroke-miterlimit="10" x1="-3.403" y1="5.447" x2="-3.403" y2="-5.553"/>
	<polygon fill="none" points="10,-10 -10,-10 -10,10 10,10 	"/>
	<g id="_x3E_3_1_">
	</g>
</symbol>
<symbol  id="full_blue_otc" viewBox="-10 -10 20.001 20">
	<polygon fill="none" points="10,10 10,-10 -10,-10 -10,10 	"/>
	<g id="Profile_Picture_2_2_">
		<polygon fill="#0A4B6E" points="9.5,0 0,-9.5 -9.5,0 0,9.5 		"/>
	</g>
	<g>
		<path fill="#FFFFFF" d="M-4.173,3.147c1.62,0,2.175-0.883,2.175-3.147s-0.555-3.147-2.175-3.147c-1.621,0-2.175,0.883-2.175,3.147
			S-5.794,3.147-4.173,3.147z M-4.173-2.079c0.486,0,0.537,0.441,0.537,2.079c0,1.637-0.051,2.079-0.537,2.079
			C-4.66,2.079-4.71,1.637-4.71,0C-4.71-1.638-4.66-2.079-4.173-2.079z"/>
		<path fill="#FFFFFF" d="M-0.712,1.688h-1.194v1.34h3.975v-1.34H0.874v-4.718h-1.586V1.688z"/>
		<path fill="#FFFFFF" d="M4.77,1.188c0,0.688-0.128,0.891-0.435,0.891C3.849,2.079,3.797,1.637,3.797,0
			c0-1.638,0.051-2.079,0.537-2.079c0.393,0,0.478,0.339,0.478,1.485h1.535v-0.45c0-1.697-0.998-2.104-2.013-2.104
			C2.551-3.147,2.159-2.257,2.159,0c0,2.316,0.529,3.147,2.176,3.147c1.433,0,1.971-0.747,1.971-1.917V0.848H4.77V1.188z"/>
	</g>
</symbol>
<symbol  id="full_red_otc" viewBox="-10 -10 20.001 20">
	<polygon fill="none" points="10,10 9.999,-10 -10,-10 -10,10 	"/>
	<g id="Profile_Picture_2_1_">
	</g>
	<polygon fill="#871409" points="9.5,0 0,-9.5 -9.5,0 0,9.5 	"/>
	<g id="full_blue_otc_2_">
		<polygon fill="none" points="10,10 10,-10 -10,-10 -10,10 		"/>
		<g>
			<path fill="#FFFFFF" d="M-4.173,3.147c1.62,0,2.175-0.883,2.175-3.147s-0.555-3.147-2.175-3.147
				c-1.621,0-2.175,0.883-2.175,3.147S-5.794,3.147-4.173,3.147z M-4.173-2.079c0.486,0,0.537,0.441,0.537,2.079
				c0,1.637-0.051,2.079-0.537,2.079C-4.66,2.079-4.71,1.637-4.71,0C-4.71-1.638-4.66-2.079-4.173-2.079z"/>
			<path fill="#FFFFFF" d="M-0.712,1.688h-1.194v1.34h3.975v-1.34H0.874v-4.718h-1.586V1.688z"/>
			<path fill="#FFFFFF" d="M4.77,1.188c0,0.688-0.128,0.891-0.435,0.891C3.849,2.079,3.797,1.637,3.797,0
				c0-1.638,0.051-2.079,0.537-2.079c0.393,0,0.478,0.339,0.478,1.485h1.535v-0.45c0-1.697-0.998-2.104-2.013-2.104
				C2.551-3.147,2.159-2.257,2.159,0c0,2.316,0.529,3.147,2.176,3.147c1.433,0,1.971-0.747,1.971-1.917V0.848H4.77V1.188z"/>
		</g>
	</g>
</symbol>
<symbol  id="full_red_rx" viewBox="-10 -10 20 20">
	<polygon fill="none" points="10,-10 -10,-10 -10,10 10,10 	"/>
	<polygon fill="#871409" points="8,-8 -8,-8 -8,8 8,8 	"/>
	<path fill="#FFFFFF" d="M4.813-4.217l2.638,2.774H4.527L3.381-2.694L3.059-2.34L0.855,0.245C2.187,0.47,2.909,1.533,2.909,2.761
		c0,1.9-1.407,2.739-3.262,2.739H-4v-8.904h2.44v3.426h0.025L1.95-4.217L-1.238-7.5h2.975l1.644,1.796L5.025-7.5H8L4.813-4.217z
		 M-1.56,1.509v2.219h0.236c0.797,0,1.693-0.141,1.693-1.109c0-0.967-0.896-1.109-1.693-1.109H-1.56z"/>
</symbol>
<symbol  id="gray_place_marker" viewBox="-15 -15 30 30">
	<path fill="#B4B4B4" d="M3,4.875c0-1.656-1.344-3-3-3s-3,1.344-3,3s1.344,3,3,3S3,6.531,3,4.875 M7,4.717c0,3.866-3.134,7-7,7
		s-7-3.134-7-7C-7,1.216,0-10,0-13.717C0-10,7,1.216,7,4.717"/>
	<g id="ico_x5F_campaign_2_3_">
	</g>
	<polygon fill="none" points="15,-15 -15,-15 -15,15 15,15 	"/>
</symbol>
<symbol  id="grey_mail" viewBox="-15 -15 30 30">
	<polygon fill="none" points="15,-15 -15,-15 -15,15 15,15 	"/>
	<g id="ico_x5F_campaign_3_3_">
		<polygon fill="#C0C0C0" points="-10.5,8.849 0,-2.302 10.5,8.849 		"/>
		<polygon fill="#C0C0C0" points="-11,7.396 0,-4.728 11,7.396 11,-8.849 -11,-8.849 		"/>
	</g>
</symbol>
<symbol  id="grey_printer" viewBox="-15 -15 30 30">
	<polygon fill="none" points="15,-15 -15,-15 -15,15 15,15 	"/>
	<path fill="#B4B4B4" d="M7.085-8.99L13-9V4H6v8H-6V4h-7V-9l6.094,0.01l-0.711-2.022V-12H7.679v0.987 M-5,11H5V1H-5V11z
		 M-4.455-5.98h9.303l1.164-4.439H-6.013L-4.455-5.98z"/>
	<g id="corner_23_4_">
	</g>
</symbol>
<symbol  id="heavy_male" viewBox="-20 -20 40 40">
	<polygon fill="none" points="20,-20 -20,-20 -20,20 20,20 	"/>
	<path fill="#AFC3CD" d="M12.5,0.001c0,6.904-5.596,12.5-12.501,12.5c-6.902,0-12.5-5.596-12.5-12.5s5.598-12.5,12.5-12.5
		C6.904-12.499,12.5-6.903,12.5,0.001"/>
	<g>
		<g>
			<defs>
				<path id="SVGID_9_" d="M8.442-6.144C5.716-5.16,3.323-6.063,3.323-4.23c0,0.095,0.024,0.149,0.037,0.225
					C4.295-2.31-4.674-2.522-3.311-4.033C-3.302-4.1-3.278-4.146-3.278-4.23c0-1.833-2.395-0.93-5.164-1.913
					C-11.168-7.171-10.5-7.947-10.5-8.618c0-0.718,0-4.369,0-4.369h21c0,0,0,3.651,0,4.369C10.5-7.947,11.212-7.171,8.442-6.144z"/>
			</defs>
			<clipPath id="SVGID_10_">
				<use xlink:href="#SVGID_9_"  overflow="visible"/>
			</clipPath>
			<linearGradient id="SVGID_11_" gradientUnits="userSpaceOnUse" x1="-12.4292" y1="-0.1182" x2="12.4292" y2="-0.1182">
				<stop  offset="0" style="stop-color:#ECEDEC"/>
				<stop  offset="1" style="stop-color:#D0D0CF"/>
			</linearGradient>
			<path clip-path="url(#SVGID_10_)" fill="url(#SVGID_11_)" d="M12.429-0.118c0,6.865-5.564,12.43-12.429,12.43
				s-12.429-5.563-12.429-12.43S-6.864-12.548,0-12.548S12.429-6.983,12.429-0.118"/>
		</g>
	</g>
	<linearGradient id="SVGID_12_" gradientUnits="userSpaceOnUse" x1="-6" y1="1.5" x2="6" y2="1.5">
		<stop  offset="0" style="stop-color:#ECEDEC"/>
		<stop  offset="1" style="stop-color:#D0D0CF"/>
	</linearGradient>
	<path fill="url(#SVGID_12_)" d="M5.995,2.494C5.792-2.119,3.311-5.17-0.002-5.17S-6-2.331-6,2.494C-6,5.629-3.314,8.17-0.002,8.17
		S6.133,5.626,5.995,2.494z"/>
	<path fill="none" stroke="#7191A1" stroke-miterlimit="10" d="M12.5,0c0,6.904-5.597,12.5-12.5,12.5S-12.5,6.904-12.5,0
		S-6.903-12.5,0-12.5S12.5-6.904,12.5,0"/>
</symbol>
<symbol  id="ico_x5F_campaign_2" viewBox="-15 -15 30 30">
	<polygon fill="none" points="15,-15 -15,-15 -15,15 15,15 	"/>
	<path fill="#C0C0C0" d="M7.922,11.881C5.348,12.775-0.066,9.994-5.007,5.054c-4.601-4.601-7.327-9.613-6.96-12.359
		c-0.02-1.328,0.488-2.699,1.545-3.756c1.973-1.975,3.622-0.666,5.447,1.158c1.824,1.824,3.132,3.476,1.16,5.448
		C-4.634-3.638-5.64-3.157-6.671-2.983c1.244,1.635,2.799,3.382,4.56,5.143c1.724,1.725,3.438,3.256,5.044,4.485
		C3.106,5.609,3.585,4.593,4.409,3.77c1.974-1.973,3.622-0.666,5.448,1.159c1.824,1.824,3.133,3.476,1.16,5.448
		C10.135,11.257,9.033,11.747,7.922,11.881z"/>
</symbol>
<symbol  id="ico_x5F_campaign_7" viewBox="-15 -15 30 30">
	<polygon fill="none" points="15,-15 -15,-15 -15,15 15,15 	"/>
	<path fill="#0A4B6E" d="M7.922,11.881C5.348,12.775-0.066,9.994-5.007,5.054c-4.601-4.601-7.327-9.613-6.96-12.359
		c-0.02-1.328,0.488-2.699,1.545-3.755c1.973-1.975,3.622-0.667,5.447,1.158c1.824,1.824,3.132,3.475,1.16,5.448
		C-4.634-3.638-5.64-3.157-6.671-2.982c1.244,1.635,2.799,3.382,4.56,5.143c1.724,1.724,3.438,3.255,5.044,4.484
		C3.106,5.61,3.585,4.593,4.409,3.77c1.974-1.973,3.622-0.666,5.448,1.16c1.824,1.824,3.133,3.475,1.16,5.448
		C10.135,11.257,9.033,11.747,7.922,11.881z"/>
	<g id="Menu_4_2_">
	</g>
</symbol>
<symbol  id="icon_x5F_home_2" viewBox="-20 -20 40 40">
	<polygon fill="none" points="20,-20 -20,-20 -20,20 20,20 	"/>
	<g>
		<linearGradient id="SVGID_13_" gradientUnits="userSpaceOnUse" x1="-8.001" y1="-0.8232" x2="7.999" y2="-0.8232">
			<stop  offset="0" style="stop-color:#ECEDEC"/>
			<stop  offset="1" style="stop-color:#D0D0CF"/>
		</linearGradient>
		<polygon fill="url(#SVGID_13_)" points="7.999,0.303 0.088,9.354 -8.001,0.303 -8.001,-11 7.999,-11 		"/>
		<polygon fill="#0D4862" points="-11.5,-0.957 -9.086,-0.957 0.005,8.389 0.005,8.381 9.086,-0.957 11.5,-0.957 0,10.854 		"/>
		<polygon fill="#0D4862" points="3,-11 -3,-11 -3,-2 3,-2 		"/>
	</g>
</symbol>
<symbol  id="k_x5F_edit_2" viewBox="-10 -10 20.001 20">
	<path fill="#0A4B6E" d="M-6.19-2.939l-0.943-4.194l4.197,0.943l7.141,7.143L0.953,4.206L-6.19-2.939z M6.266,4.922L4.922,6.266
		C4.397,6.792,3.542,6.795,3.013,6.27L1.877,5.131L5.13,1.879l1.135,1.137C6.793,3.542,6.792,4.395,6.266,4.922z"/>
	<polygon fill="none" points="-10,10 10,10 10,-10 -10,-10 	"/>
	<g id="Menu_3_1_">
	</g>
	<g id="ico_x5F_campaign_7_2_">
	</g>
</symbol>
<symbol  id="new_female" viewBox="-20 -20 40 40">
	<polygon fill="none" points="20,-20 -20,-20 -20,20 20,20 	"/>
	<path fill="#AFC3CD" d="M12.5,0.001c0,6.904-5.596,12.5-12.5,12.5c-6.902,0-12.5-5.596-12.5-12.5s5.598-12.5,12.5-12.5
		C6.904-12.499,12.5-6.903,12.5,0.001"/>
	<g>
		<g>
			<defs>
				<path id="SVGID_14_" d="M6.051-8.979C3.276-7.978,2.366-7.115,2.366-5.25c0,0.2,0.03,0.349,0.08,0.475
					c3.452,0.32,5.387,1.324,6.042,3.638C7.545-1.244,5.732-0.127,5.532,0.918c0,0.03,0,0.03,0,0.03v0.335
					c0,3.06-2.486,5.551-5.482,5.551c-3.094,0-5.579-2.491-5.579-5.551V0.949c0,0,0,0,0-0.03c-0.164-1.046-2.05-2.162-2.958-2.057
					c0.659-2.323,2.64-3.325,6.091-3.642c0.048-0.125,0.078-0.272,0.078-0.47c0-1.865-0.91-2.729-3.73-3.729
					c-2.776-1.047-4.642-2.092-4.642-2.773c0-0.73,0-2.413,0-2.413h21.38c0,0,0,1.683,0,2.413
					C10.69-11.071,8.873-10.026,6.051-8.979z"/>
			</defs>
			<clipPath id="SVGID_15_">
				<use xlink:href="#SVGID_14_"  overflow="visible"/>
			</clipPath>
			<linearGradient id="SVGID_16_" gradientUnits="userSpaceOnUse" x1="-12.9751" y1="0.1387" x2="12.9751" y2="0.1387">
				<stop  offset="0" style="stop-color:#ECEDEC"/>
				<stop  offset="1" style="stop-color:#D0D0CF"/>
			</linearGradient>
			<path clip-path="url(#SVGID_15_)" fill="url(#SVGID_16_)" d="M12.975,0.139c0,7.167-5.809,12.976-12.975,12.976
				S-12.975,7.306-12.975,0.139c0-7.166,5.809-12.975,12.975-12.975S12.975-7.026,12.975,0.139"/>
		</g>
	</g>
	<path fill="none" stroke="#7191A1" stroke-miterlimit="10" d="M12.5,0c0,6.904-5.597,12.5-12.5,12.5S-12.5,6.904-12.5,0
		c0-6.903,5.597-12.5,12.5-12.5S12.5-6.903,12.5,0"/>
</symbol>
<symbol  id="new_group_members" viewBox="-20 -20 40 40">
	<g id="multi_personal_1_">
		<polygon fill="none" points="20,-20 -20,-20 -20,20 20,20 		"/>
		<g id="new_solid_man_1_">
		</g>
	</g>
	<path fill="#0A4B6E" d="M13,7.303c0,3.255-2.686,5.895-6,5.895c-3.313,0-6-2.64-6-5.895s2.687-5.895,6-5.895
		C10.314,1.408,13,4.047,13,7.303"/>
	<g>
		<g>
			<defs>
				<path id="SVGID_17_" d="M9.798,3.159C8.515,3.615,8.095,4.007,8.095,4.854c0,0.091,0.014,0.158,0.036,0.216
					c1.598,0.146,2.491,0.602,2.795,1.651c-0.437-0.048-1.275,0.46-1.368,0.936c0,0.014,0,0.014,0,0.014v0.151
					c0,1.391-1.15,2.521-2.535,2.521c-1.43,0-2.58-1.13-2.58-2.521V7.67c0,0,0,0,0-0.014C4.367,7.182,3.496,6.674,3.075,6.722
					C3.38,5.667,4.296,5.211,5.892,5.068C5.914,5.01,5.929,4.943,5.929,4.854c0-0.848-0.422-1.239-1.726-1.694
					C2.919,2.684,2.058,2.21,2.058,1.899c0-0.331,0-1.097,0-1.097h9.886c0,0,0,0.766,0,1.097C11.944,2.21,11.103,2.684,9.798,3.159z
					"/>
			</defs>
			<clipPath id="SVGID_18_">
				<use xlink:href="#SVGID_17_"  overflow="visible"/>
			</clipPath>
			<linearGradient id="SVGID_19_" gradientUnits="userSpaceOnUse" x1="1" y1="7.3027" x2="13" y2="7.3027">
				<stop  offset="0" style="stop-color:#ECEDEC"/>
				<stop  offset="1" style="stop-color:#D0D0CF"/>
			</linearGradient>
			<path clip-path="url(#SVGID_18_)" fill="url(#SVGID_19_)" d="M13,7.303c0,3.255-2.687,5.895-6,5.895s-6-2.64-6-5.895
				s2.687-5.895,6-5.895S13,4.047,13,7.303"/>
		</g>
	</g>
	<path fill="none" stroke="#AFC3CD" stroke-width="0.48" stroke-miterlimit="10" d="M13,7.303c0,3.255-2.687,5.895-6,5.895
		s-6-2.64-6-5.895s2.687-5.895,6-5.895S13,4.047,13,7.303"/>
	<path fill="#0A4B6E" d="M-1-6.694C-1-3.4-3.686-0.731-7-0.731c-3.313,0-6-2.669-6-5.963s2.687-5.964,6-5.964
		C-3.686-12.658-1-9.987-1-6.694"/>
	<g>
		<g>
			<defs>
				<path id="SVGID_20_" d="M-4.201-10.886c-1.284,0.46-1.704,0.856-1.704,1.715c0,0.091,0.014,0.16,0.036,0.217
					c1.597,0.147,2.491,0.609,2.795,1.672C-3.511-7.33-4.35-6.816-4.441-6.336c0,0.014,0,0.014,0,0.014v0.153
					c0,1.408-1.15,2.551-2.535,2.551c-1.43,0-2.58-1.144-2.58-2.551v-0.153c0,0,0,0,0-0.014c-0.076-0.48-0.949-0.994-1.369-0.946
					C-10.62-8.35-9.703-8.81-8.108-8.955c0.022-0.058,0.036-0.126,0.036-0.216c0-0.857-0.422-1.255-1.726-1.715
					c-1.283-0.481-2.145-0.961-2.145-1.274c0-0.335,0-1.108,0-1.108h9.886c0,0,0,0.772,0,1.108
					C-2.057-11.847-2.897-11.367-4.201-10.886z"/>
			</defs>
			<clipPath id="SVGID_21_">
				<use xlink:href="#SVGID_20_"  overflow="visible"/>
			</clipPath>
			<linearGradient id="SVGID_22_" gradientUnits="userSpaceOnUse" x1="-13" y1="-6.6953" x2="-1" y2="-6.6953">
				<stop  offset="0" style="stop-color:#ECEDEC"/>
				<stop  offset="1" style="stop-color:#D0D0CF"/>
			</linearGradient>
			<path clip-path="url(#SVGID_21_)" fill="url(#SVGID_22_)" d="M-1-6.694C-1-3.4-3.687-0.731-7-0.731s-6-2.669-6-5.963
				s2.687-5.964,6-5.964S-1-9.987-1-6.694"/>
		</g>
	</g>
	<path fill="none" stroke="#AFC3CD" stroke-width="0.48" stroke-miterlimit="10" d="M-1-6.694C-1-3.4-3.687-0.731-7-0.731
		s-6-2.669-6-5.963s2.687-5.964,6-5.964S-1-9.987-1-6.694"/>
	<path display="none" fill="#094A6E" d="M-1,7.215c0,3.293-2.686,5.963-6,5.963c-3.313,0-6-2.67-6-5.963s2.687-5.964,6-5.964
		C-3.686,1.251-1,3.922-1,7.215"/>
	<g display="none">
		<g display="inline">
			<defs>
				<path id="SVGID_23_" d="M-4.132,3.264c-1.315,0.474-1.746,0.879-1.746,1.759c0,0.044,0.012,0.071,0.018,0.106
					c0.766,0.65-2.912,0.712-2.253-0.013C-8.11,5.084-8.1,5.062-8.1,5.022c0-0.88-0.432-1.285-1.768-1.759
					c-1.317-0.491-2.201-0.983-2.201-1.306c0-0.345,0-1.137,0-1.137h10.136c0,0,0,0.792,0,1.137
					C-1.933,2.28-2.794,2.772-4.132,3.264z"/>
			</defs>
			<clipPath id="SVGID_24_">
				<use xlink:href="#SVGID_23_"  overflow="visible"/>
			</clipPath>
			<path clip-path="url(#SVGID_24_)" fill="#DBDBDA" d="M-1,6.995c0,3.293-2.687,5.962-6,5.962s-5.999-2.669-5.999-5.962
				S-10.313,1.032-7,1.032S-1,3.702-1,6.995"/>
		</g>
	</g>
	<path display="none" fill="none" stroke="#C3D7E1" stroke-width="0.5" stroke-miterlimit="10" d="M-1,7.215
		c0,3.292-2.687,5.962-6,5.962s-5.999-2.67-5.999-5.962c0-3.294,2.686-5.964,5.999-5.964S-1,3.921-1,7.215"/>
	<path display="none" fill="#DBDBDA" d="M-4.26,7.68c0-1.503-1.228-3.677-2.74-3.677S-9.739,6.177-9.739,7.68
		c0,1.504,1.227,2.725,2.739,2.725S-4.26,9.185-4.26,7.68z"/>
	<path display="none" fill="#094A6E" d="M13-6.785c0,3.293-2.686,5.963-6,5.963c-3.313,0-6-2.67-6-5.963s2.687-5.963,6-5.963
		C10.314-12.748,13-10.079,13-6.785"/>
	<g display="none">
		<g display="inline">
			<defs>
				<path id="SVGID_25_" d="M9.868-10.735c-1.315,0.473-1.746,0.879-1.746,1.758c0,0.045,0.012,0.072,0.019,0.106
					c0.765,0.65-2.913,0.712-2.254-0.012C5.89-8.916,5.9-8.938,5.9-8.978c0-0.879-0.432-1.285-1.768-1.758
					c-1.317-0.492-2.201-0.984-2.201-1.307c0-0.344,0-1.136,0-1.136h10.137c0,0,0,0.792,0,1.136
					C12.068-11.721,11.206-11.229,9.868-10.735z"/>
			</defs>
			<clipPath id="SVGID_26_">
				<use xlink:href="#SVGID_25_"  overflow="visible"/>
			</clipPath>
			<path clip-path="url(#SVGID_26_)" fill="#DBDBDA" d="M13-7.004c0,3.292-2.687,5.962-6,5.962s-5.999-2.67-5.999-5.962
				c0-3.294,2.686-5.964,5.999-5.964S13-10.299,13-7.004"/>
		</g>
	</g>
	<path display="none" fill="none" stroke="#C3D7E1" stroke-width="0.5" stroke-miterlimit="10" d="M13-6.785
		c0,3.293-2.687,5.963-6,5.963s-5.999-2.67-5.999-5.963S3.687-12.749,7-12.749S13-10.079,13-6.785"/>
	<path display="none" fill="#DBDBDA" d="M9.74-6.319c0-1.504-1.228-3.678-2.74-3.678S4.261-7.823,4.261-6.319S5.488-3.596,7-3.596
		S9.74-4.815,9.74-6.319z"/>
	<g id="male_2_">
		<g>
			<path fill="#094A6E" d="M13-6.88c0,3.313-2.686,6-6,6c-3.313,0-6-2.687-6-6c0-3.314,2.687-6,6-6C10.314-12.879,13-10.194,13-6.88
				"/>
			<g>
				<g>
					<defs>
						<path id="SVGID_27_" d="M9.856-10.672c-1.31,0.473-1.739,0.88-1.739,1.761c0,0.045,0.012,0.072,0.018,0.107
							c0.761,0.65-2.9,0.713-2.245-0.014c0.004-0.031,0.015-0.055,0.015-0.095c0-0.881-0.43-1.288-1.761-1.761
							c-1.311-0.494-2.19-0.987-2.19-1.31c0-0.345,0-1.139,0-1.139h10.092c0,0,0,0.794,0,1.139
							C12.046-11.659,11.188-11.166,9.856-10.672z"/>
					</defs>
					<clipPath id="SVGID_28_">
						<use xlink:href="#SVGID_27_"  overflow="visible"/>
					</clipPath>
					<linearGradient id="SVGID_29_" gradientUnits="userSpaceOnUse" x1="1.0259" y1="-6.9355" x2="12.9741" y2="-6.9355">
						<stop  offset="0" style="stop-color:#ECEDEC"/>
						<stop  offset="1" style="stop-color:#D0D0CF"/>
					</linearGradient>
					<path clip-path="url(#SVGID_28_)" fill="url(#SVGID_29_)" d="M12.974-6.935c0,3.299-2.675,5.974-5.974,5.974
						S1.026-3.635,1.026-6.935c0-3.301,2.675-5.975,5.974-5.975S12.974-10.235,12.974-6.935"/>
				</g>
			</g>
			<linearGradient id="SVGID_30_" gradientUnits="userSpaceOnUse" x1="4.272" y1="-6.7266" x2="9.728" y2="-6.7266">
				<stop  offset="0" style="stop-color:#ECEDEC"/>
				<stop  offset="1" style="stop-color:#D0D0CF"/>
			</linearGradient>
			<path fill="url(#SVGID_30_)" d="M9.728-6.249c0-1.506-1.221-3.684-2.728-3.684c-1.506,0-2.728,2.177-2.728,3.684
				S5.494-3.521,7-3.521C8.507-3.521,9.728-4.742,9.728-6.249z"/>
			<path fill="none" stroke="#AFC3CD" stroke-width="0.48" stroke-miterlimit="10" d="M13-6.88c0,3.313-2.687,6-6,6s-6-2.687-6-6
				c0-3.314,2.687-6,6-6S13-10.194,13-6.88"/>
		</g>
	</g>
	<g id="male_copy_2_">
		<g>
			<path fill="#094A6E" d="M-1,7.12c0,3.313-2.686,6-6,6c-3.313,0-6-2.687-6-6c0-3.314,2.687-6,6-6C-3.686,1.121-1,3.806-1,7.12"/>
			<g>
				<g>
					<defs>
						<path id="SVGID_31_" d="M-4.144,3.328c-1.31,0.473-1.739,0.88-1.739,1.761c0,0.045,0.012,0.072,0.018,0.107
							c0.761,0.65-2.9,0.713-2.245-0.014c0.004-0.031,0.015-0.055,0.015-0.095c0-0.881-0.43-1.288-1.761-1.761
							c-1.311-0.494-2.19-0.987-2.19-1.31c0-0.345,0-1.139,0-1.139h10.092c0,0,0,0.794,0,1.139
							C-1.954,2.341-2.812,2.834-4.144,3.328z"/>
					</defs>
					<clipPath id="SVGID_32_">
						<use xlink:href="#SVGID_31_"  overflow="visible"/>
					</clipPath>
					<linearGradient id="SVGID_33_" gradientUnits="userSpaceOnUse" x1="-12.9741" y1="7.0645" x2="-1.0259" y2="7.0645">
						<stop  offset="0" style="stop-color:#ECEDEC"/>
						<stop  offset="1" style="stop-color:#D0D0CF"/>
					</linearGradient>
					<path clip-path="url(#SVGID_32_)" fill="url(#SVGID_33_)" d="M-1.026,7.065c0,3.299-2.675,5.974-5.974,5.974
						s-5.974-2.674-5.974-5.974c0-3.301,2.675-5.975,5.974-5.975S-1.026,3.765-1.026,7.065"/>
				</g>
			</g>
			<linearGradient id="SVGID_34_" gradientUnits="userSpaceOnUse" x1="-9.728" y1="7.2734" x2="-4.272" y2="7.2734">
				<stop  offset="0" style="stop-color:#ECEDEC"/>
				<stop  offset="1" style="stop-color:#D0D0CF"/>
			</linearGradient>
			<path fill="url(#SVGID_34_)" d="M-4.272,7.751c0-1.506-1.221-3.684-2.728-3.684c-1.506,0-2.728,2.177-2.728,3.684
				S-8.506,10.479-7,10.479C-5.493,10.479-4.272,9.258-4.272,7.751z"/>
			<path fill="none" stroke="#AFC3CD" stroke-width="0.48" stroke-miterlimit="10" d="M-1,7.12c0,3.313-2.687,6-6,6s-6-2.687-6-6
				c0-3.314,2.687-6,6-6S-1,3.806-1,7.12"/>
		</g>
	</g>
</symbol>
<symbol  id="new_patient" viewBox="-20 -20 40 40">
	<polygon fill="none" points="20,-20 -20,-20 -20,20 20,20 	"/>
	<path fill="#094A6E" d="M12.5,0.001c0,6.904-5.596,12.5-12.501,12.5c-6.902,0-12.5-5.596-12.5-12.5s5.598-12.5,12.5-12.5
		C6.904-12.499,12.5-6.903,12.5,0.001"/>
	<g>
		<g>
			<defs>
				<path id="SVGID_35_" d="M5.95-7.9C3.22-6.915,2.326-6.067,2.326-4.231c0,0.095,0.025,0.149,0.038,0.225
					C3.95-2.651-3.679-2.522-2.313-4.034c0.009-0.066,0.032-0.114,0.032-0.197c0-1.836-0.895-2.684-3.668-3.669
					c-2.73-1.027-4.564-2.056-4.564-2.727c0-0.719,0-2.373,0-2.373h21.026c0,0,0,1.654,0,2.373C10.513-9.957,8.724-8.929,5.95-7.9z"
					/>
			</defs>
			<clipPath id="SVGID_36_">
				<use xlink:href="#SVGID_35_"  overflow="visible"/>
			</clipPath>
			<linearGradient id="SVGID_37_" gradientUnits="userSpaceOnUse" x1="-12.4458" y1="-0.1143" x2="12.4458" y2="-0.1143">
				<stop  offset="0" style="stop-color:#ECEDEC"/>
				<stop  offset="1" style="stop-color:#D0D0CF"/>
			</linearGradient>
			<path clip-path="url(#SVGID_36_)" fill="url(#SVGID_37_)" d="M12.446-0.114C12.446,6.76,6.874,12.331,0,12.331
				S-12.446,6.76-12.446-0.114C-12.446-6.989-6.874-12.56,0-12.56S12.446-6.989,12.446-0.114"/>
		</g>
	</g>
	<linearGradient id="SVGID_38_" gradientUnits="userSpaceOnUse" x1="-5.6841" y1="0.3203" x2="5.6841" y2="0.3203">
		<stop  offset="0" style="stop-color:#ECEDEC"/>
		<stop  offset="1" style="stop-color:#D0D0CF"/>
	</linearGradient>
	<path fill="url(#SVGID_38_)" d="M5.684,1.316c0-3.14-2.545-7.675-5.684-7.675s-5.684,4.536-5.684,7.675C-5.684,4.454-3.139,7,0,7
		S5.684,4.455,5.684,1.316z"/>
	<path fill="none" stroke="#AFC3CD" stroke-miterlimit="10" d="M12.5,0c0,6.904-5.597,12.5-12.5,12.5S-12.5,6.904-12.5,0
		S-6.903-12.5,0-12.5S12.5-6.904,12.5,0"/>
</symbol>
<symbol  id="new_x" viewBox="-10 -10 20 20">
	<polygon fill="#871409" points="5.5,3.499 3.501,5.498 0,1.999 -3.5,5.5 -5.5,3.5 -1.999,0 -5.5,-3.5 -3.5,-5.5 0,-2 3.5,-5.499 
		5.499,-3.501 2,-0.001 	"/>
	<polygon fill="none" points="10,-10 -10,-10 -10,10 10,10 	"/>
	<g id="corner_12_1_">
	</g>
</symbol>
<symbol  id="orange_arrow" viewBox="-10 -10 20 20">
	<polygon fill="none" points="10,-10 -10,-10 -10,10 10,10 	"/>
	<g transform="scale(0.078125,0.078125)">
		<path fill="#E09529" d="M89.602,0L12.805,76.797v-64H-89.594v-25.594H12.805v-64"/>
	</g>
</symbol>
<symbol  id="place_marker" viewBox="-15 -15 30 30">
	<path fill="#0A4B6E" d="M2.973,5.069c0-1.642-1.332-2.974-2.973-2.974s-2.973,1.332-2.973,2.974c0,1.641,1.332,2.973,2.973,2.973
		S2.973,6.71,2.973,5.069 M7.431,5.069C7.431,9.173,4.104,12.5,0,12.5s-7.431-3.327-7.431-7.431C-7.431,1.353,0-10.554,0-14.5
		C0-10.554,7.431,1.353,7.431,5.069"/>
	<g id="ico_x5F_campaign_2_1_">
	</g>
	<polygon fill="none" points="15,-15 -15,-15 -15,15 15,15 	"/>
</symbol>
<symbol  id="pointer_x5F_large" viewBox="-10 -15 20 30">
	<polygon fill="#AFC3CD" points="-10,0 10,15 10,-15 	"/>
</symbol>
<symbol  id="pointer_x5F_nav" viewBox="-7.5 -5 15 10">
	<polygon fill="#AFC3CD" points="0,-5 -7.5,5 7.5,5 	"/>
	<polygon fill="none" points="7.5,-5 -7.5,-5 -7.5,5 7.5,5 	"/>
</symbol>
<symbol  id="priority_x5F_medium" viewBox="-10 -10 20 20">
	<path fill="#FFD123" d="M5,0c0-2.762-2.238-5-5-5s-5,2.238-5,5s2.238,5,5,5S5,2.762,5,0z"/>
	<polygon fill="none" points="10,-10 -10,-10 -10,10 10,10 	"/>
</symbol>
<symbol  id="red_flag" viewBox="-10 -10 20 20">
	<path fill="#871409" d="M5.403-0.372C5.196-0.784,2.83-2.968,1.689-1.497C0.091,0.565-2.024-0.372-2.024-0.372v5.713
		c0,0,2.115,0.938,3.714-1.125c1.14-1.471,3.506,0.713,3.713,1.125V-0.372z"/>
	<line fill="none" stroke="#C0C0C0" stroke-miterlimit="10" x1="-3.403" y1="5.447" x2="-3.403" y2="-5.553"/>
	<polygon fill="none" points="10,-10 -10,-10 -10,10 10,10 	"/>
	<g id="_x3E_3_2_">
	</g>
	<g id="_x3E_13_1_">
	</g>
</symbol>
<symbol  id="red_warning_2" viewBox="-10 -10 20 20">
	<g id="Layer_1_2_">
		<g id="red_warning_2_1_">
			<polygon fill="none" points="-10,10 10,10 10,-10 -10,-10 			"/>
			<polygon fill="#871409" points="-9.5,8 9.5,8 0,-8.5 			"/>
			<path fill="#FFFFFF" d="M0-1.391c0.829,0,1.5-0.582,1.5-1.305C1.5-3.417,0.829-4,0-4c-0.828,0-1.5,0.583-1.5,1.306
				C-1.5-1.973-0.828-1.391,0-1.391z"/>
			<polygon fill="#FFFFFF" points="-1.426,6 1.43,6 0.931,-0.21 -0.926,-0.21 			"/>
		</g>
	</g>
</symbol>
<symbol  id="right_arrow" viewBox="-10 -10 20 20">
	<polygon fill="#0A4B6E" points="-1.691,6.5 3.5,0.002 3.499,0.002 3.5,0 -1.689,-6.5 -3.499,-5.249 0.682,0 -3.5,5.249 	"/>
	<polygon fill="none" points="-10,-10 10,-10 10,10 -10,10 	"/>
	<g id="corner_21_1_">
	</g>
</symbol>
<symbol  id="rx_blue_icon" viewBox="-10 -10 20 20">
	<polygon fill="none" points="10,-10 -10,-10 -10,10 10,10 	"/>
	<polygon fill="#0A4B6E" points="8,-8 -8,-8 -8,8 8,8 	"/>
	<path fill="#FFFFFF" d="M4.813-4.217l2.638,2.774H4.527L3.381-2.694L3.059-2.34L0.855,0.245C2.187,0.47,2.909,1.533,2.909,2.761
		c0,1.9-1.407,2.739-3.262,2.739H-4v-8.904h2.44v3.426h0.025L1.95-4.217L-1.238-7.5h2.975l1.644,1.796L5.025-7.5H8L4.813-4.217z
		 M-1.56,1.509v2.219h0.236c0.797,0,1.693-0.141,1.693-1.109c0-0.967-0.896-1.109-1.693-1.109H-1.56z"/>
</symbol>
<symbol  id="search_x5F_small_2" viewBox="-15 -15 30 30">
	<path fill="none" stroke="#F5F5F5" stroke-width="2" stroke-miterlimit="10" d="M2.873-2.262c2.281,2.279,2.281,5.99,0,8.271
		c-2.28,2.279-5.99,2.279-8.271,0c-2.281-2.28-2.281-5.992,0-8.271C-3.117-4.543,0.593-4.543,2.873-2.262z"/>
	<polygon fill="#F5F5F5" points="1.948,-2.802 7.426,-8.28 8.892,-6.814 3.413,-1.335 	"/>
	<g id="Search_2_1_">
		<polygon fill="none" points="15,-15 -15,-15 -15,15 15,15 		"/>
	</g>
	<g id="_x2B_swatches_1_">
	</g>
</symbol>
<symbol  id="settings_2" viewBox="-20 -20 40 40">
	<path opacity="0.7" fill="#7191A1" enable-background="new    " d="M9.926,2.999c0.117,0.285,0.213,0.583,0.279,0.896
		s0.1,0.624,0.107,0.931l1.424,0.643L12,5.984l-0.761,2.337l-0.516,0.263L9.2,8.271c-0.381,0.49-0.853,0.913-1.39,1.247l0.152,1.551
		l-0.316,0.484l-2.401,0.511L4.759,11.75l-0.491-1.482C3.641,10.18,3.042,9.985,2.49,9.693l-1.265,0.908L0.649,10.57l-1.645-1.825
		l0.029-0.579L0.072,7c-0.117-0.285-0.213-0.58-0.279-0.893s-0.1-0.624-0.109-0.933l-1.424-0.64L-2,4.017l0.759-2.335l0.514-0.266
		L0.8,1.733c0.381-0.489,0.853-0.911,1.388-1.248L2.033-1.068L2.35-1.554l2.403-0.511l0.486,0.315l0.491,1.48
		c0.627,0.087,1.228,0.28,1.777,0.575L8.771-0.6l0.578,0.031l1.643,1.826l-0.027,0.577L9.926,2.999z M7.924,4.38
		C7.58,2.764,5.992,1.733,4.377,2.076C2.763,2.419,1.732,4.008,2.074,5.624c0.344,1.612,1.932,2.644,3.547,2.301
		C7.233,7.581,8.266,5.995,7.924,4.38z"/>
	<path fill="#0D4862" d="M0.738-5.037c0.002,0.333-0.021,0.669-0.079,1.01C0.601-3.688,0.511-3.362,0.396-3.052l1.168,1.211
		l0.057,0.623l-1.694,2.036l-0.622,0.059l-1.399-0.921C-2.673,0.294-3.313,0.529-3.985,0.65l-0.468,1.611l-0.51,0.361l-2.61-0.448
		l-0.36-0.509l0.1-1.682c-0.592-0.337-1.116-0.773-1.55-1.285l-1.631,0.404l-0.566-0.261l-0.92-2.484l0.263-0.568l1.507-0.754
		c-0.004-0.333,0.017-0.667,0.075-1.006c0.058-0.34,0.15-0.665,0.263-0.977l-1.168-1.212l-0.057-0.622l1.694-2.037l0.621-0.06
		l1.403,0.928c0.577-0.339,1.218-0.575,1.888-0.695l0.466-1.619l0.511-0.359l2.611,0.449l0.362,0.51l-0.102,1.68
		c0.596,0.337,1.12,0.773,1.552,1.286l1.627-0.404L1.583-8.84L2.5-6.354L2.241-5.789L0.738-5.037z M-2.778-4.619
		c0.209-1.225-0.614-2.39-1.839-2.6c-1.225-0.21-2.389,0.611-2.6,1.838c-0.21,1.224,0.612,2.389,1.839,2.6
		C-4.153-2.571-2.988-3.392-2.778-4.619z"/>
	<g opacity="0">
		<polygon fill="none" points="20,20 20,-20 -20,-20 -20,20 		"/>
	</g>
</symbol>
<symbol  id="settings_3" viewBox="-10 -10 20 20">
	<path fill="#AFC3CD" d="M5.389,1.949C5.275,2.262,5.139,2.57,4.967,2.867C4.795,3.166,4.596,3.439,4.383,3.691l0.674,1.541
		L4.895,5.835L2.603,7.157l-0.604-0.16L1.006,5.648c-0.658,0.118-1.34,0.116-2.013-0.005l-0.995,1.352l-0.603,0.161l-2.292-1.322
		l-0.162-0.602l0.676-1.543C-4.822,3.168-5.162,2.58-5.392,1.951l-1.669-0.187L-7.5,1.324l-0.002-2.646l0.443-0.442l1.671-0.187
		c0.111-0.311,0.248-0.619,0.42-0.916c0.172-0.299,0.37-0.571,0.584-0.824L-5.06-5.23l0.162-0.603l2.294-1.323l0.602,0.158
		l0.995,1.354C-0.349-5.76,0.332-5.76,1.004-5.643L2-6.998l0.604-0.158l2.292,1.322L5.057-5.23L4.383-3.691
		c0.441,0.523,0.781,1.111,1.01,1.742l1.664,0.185l0.441,0.442L7.496,1.324L7.059,1.766L5.389,1.949z M2.789,1.61
		C3.678,0.07,3.15-1.9,1.609-2.789C0.07-3.678-1.9-3.15-2.79-1.61C-3.679-0.07-3.15,1.9-1.611,2.789
		C-0.07,3.678,1.898,3.151,2.789,1.61z"/>
	<g opacity="0">
		<polygon fill="none" points="10,10 10,-10 -10,-10 -10,10 		"/>
	</g>
</symbol>
<symbol  id="settings_4" viewBox="-10 -10 20 20">
	<path fill="#F5F5F5" d="M5.389,1.949C5.275,2.262,5.139,2.57,4.967,2.867C4.795,3.166,4.596,3.439,4.383,3.691l0.674,1.541
		L4.895,5.835L2.603,7.157l-0.604-0.16L1.006,5.648c-0.658,0.118-1.34,0.116-2.013-0.005l-0.995,1.352l-0.603,0.161l-2.292-1.322
		l-0.162-0.602l0.676-1.543C-4.822,3.168-5.162,2.58-5.392,1.951l-1.669-0.187L-7.5,1.324l-0.002-2.646l0.443-0.442l1.671-0.187
		c0.111-0.311,0.248-0.619,0.42-0.916c0.172-0.299,0.37-0.571,0.584-0.824L-5.06-5.23l0.162-0.603l2.294-1.323l0.602,0.158
		l0.995,1.354C-0.349-5.76,0.332-5.76,1.004-5.643L2-6.998l0.604-0.158l2.292,1.322L5.057-5.23L4.383-3.691
		c0.441,0.523,0.781,1.111,1.01,1.742l1.664,0.185l0.441,0.442L7.496,1.324L7.059,1.766L5.389,1.949z M2.789,1.61
		C3.678,0.07,3.15-1.9,1.609-2.789C0.07-3.678-1.9-3.15-2.79-1.61C-3.679-0.07-3.15,1.9-1.611,2.789
		C-0.07,3.678,1.898,3.151,2.789,1.61z"/>
	<g opacity="0">
		<polygon fill="none" points="10,10 10,-10 -10,-10 -10,10 		"/>
	</g>
</symbol>
<symbol  id="sleep_1" viewBox="-10 -10 20 20">
	<g id="Layer_1_1_">
		<g id="sleep_1_1_">
			<polygon fill="none" points="10,-10 -10,-10 -10,10 10,10 			"/>
			<g>
				<path fill="#AFC3CD" d="M9,0c0-4.971-4.027-8.999-9-8.999c-4.97,0-9,4.028-9,8.999c0,4.972,4.03,9.001,9,9.001
					C4.973,9.001,9,4.972,9,0z"/>
			</g>
			<path fill="#FFFFFF" d="M1.5,0c0-0.832-0.67-1.499-1.5-1.499S-1.5-0.832-1.5,0c0,0.827,0.671,1.501,1.5,1.501
				C0.83,1.501,1.5,0.827,1.5,0z"/>
			<polygon fill="#FFFFFF" points="0.426,0 -0.574,0 -0.574,7.716 0.426,7.716 			"/>
			<polygon fill="#FFFFFF" points="5.785,1 5.785,-1 0,-1 0,1 			"/>
		</g>
	</g>
</symbol>
<symbol  id="sleep_2" viewBox="-10 -10 20 20">
	<polygon fill="none" points="10,-10 -10,-10 -10,10 10,10 	"/>
	<g>
		<path fill="#B3B3B3" d="M9,0c0-4.971-4.027-8.999-9-8.999c-4.97,0-9,4.028-9,8.999c0,4.972,4.03,9.001,9,9.001
			C4.973,9.001,9,4.972,9,0z"/>
	</g>
	<polygon fill="#FFFFFF" points="-1.08,-3.96 -3.24,-3.96 -3.24,3.96 -1.08,3.96 	"/>
	<polygon fill="#FFFFFF" points="3.24,-3.96 1.08,-3.96 1.08,3.96 3.24,3.96 	"/>
</symbol>
<symbol  id="story" viewBox="-15 -15 30 30">
	<path fill="#C0C0C0" d="M12.586,1.889C12.586,6.645,6.95,10.5,0,10.5s-12.586-3.855-12.586-8.611c0-4.603,5.282-8.35,11.922-8.587
		V-12.5L9.688-3.605c0.023,0.02,0.045,0.037,0.067,0.058l0.181,0.155H9.925C11.587-1.934,12.586-0.104,12.586,1.889z"/>
	<polygon fill="none" points="15,-15 -15,-15 -15,15 15,15 	"/>
	<text transform="matrix(1 0 0 -1 -9.0352 -1.6074)" fill="#FFFFFF" font-family="'HelveticaNeueLTStd-Md'" font-size="8.5633">SMS</text>
</symbol>
<symbol  id="story_10" viewBox="-20 -20 40 40">
	<polygon fill="none" points="20,-20 -20,-20 -20,20 20,20 	"/>
	<g id="story_10_1_">
		<polygon opacity="0.3" fill="#7191A1" enable-background="new    " points="9,-9 -8,-9 -8,11 9,11 		"/>
		<polygon opacity="0.3" fill="#7191A1" enable-background="new    " points="11,-7 -6,-7 -6,13 11,13 		"/>
		<polyline opacity="0.5" fill="#0D4862" enable-background="new    " points="7,3 7,-11 -10,-11 -10,9 2,9 		"/>
		<polyline fill="#0D4862" points="6.909,3 1.909,3 1.909,9 		"/>
	</g>
</symbol>
<symbol  id="story_12" viewBox="-15 -15 30 30">
	<path fill="#0A4B6E" d="M12.586,1.889C12.586,6.645,6.95,10.5,0,10.5s-12.586-3.855-12.586-8.611c0-4.603,5.282-8.35,11.922-8.587
		V-12.5L9.688-3.605c0.023,0.02,0.045,0.037,0.067,0.058l0.181,0.155H9.925C11.587-1.934,12.586-0.104,12.586,1.889z"/>
	<polygon fill="none" points="15,-15 -15,-15 -15,15 15,15 	"/>
	<text transform="matrix(1 0 0 -1 -9.501 -1.7422)" fill="#FFFFFF" font-family="'HelveticaNeueLTStd-Md'" font-size="9.0051">SMS</text>
	<g id="Menu_4_1_">
	</g>
	<g id="ico_x5F_campaign_7_1_">
	</g>
</symbol>
<symbol  id="story_3" viewBox="-20 -20 40 40">
	<polygon fill="none" points="20,-20 -20,-20 -20,20 20,20 	"/>
	<g opacity="0.5">
		<polygon fill="#DCDCDC" points="11.5,-10.812 -10.5,-10.812 -10.5,11.188 11.5,11.188 		"/>
	</g>
	<line fill="none" stroke="#B4B4B4" stroke-miterlimit="10" x1="-8.5" y1="10.979" x2="-8.5" y2="-11.021"/>
	<line fill="none" stroke="#B4B4B4" stroke-miterlimit="10" stroke-dasharray="2,1" x1="-4.5" y1="10.979" x2="-4.5" y2="-11.021"/>
	<line fill="none" stroke="#B4B4B4" stroke-miterlimit="10" stroke-dasharray="2,1" x1="-0.5" y1="10.979" x2="-0.5" y2="-11.021"/>
	<line fill="none" stroke="#B4B4B4" stroke-miterlimit="10" stroke-dasharray="2,1" x1="3.5" y1="10.979" x2="3.5" y2="-11.021"/>
	<line fill="none" stroke="#B4B4B4" stroke-miterlimit="10" stroke-dasharray="2,1" x1="7.5" y1="10.979" x2="7.5" y2="-11.021"/>
	<polygon fill="#0D4862" points="-9,-9.021 -9,-6.021 3,-6.021 3,-9.021 	"/>
	<polygon fill="#0D4862" points="-9,-5.021 -9,-2.021 10,-2.021 10,-5.021 	"/>
	<polygon fill="#0D4862" points="-9,2.979 -9,5.979 6,5.979 6,2.979 	"/>
	<polygon fill="#0D4862" points="-9,-1.021 -9,1.979 5,1.979 5,-1.021 	"/>
	<polygon fill="#0D4862" points="-9,6.979 -9,9.979 -4,9.979 -4,6.979 	"/>
	<polygon opacity="0.15" fill="none" stroke="#0D4862" stroke-miterlimit="10" enable-background="new    " points="11.5,-11.188 
		-10.5,-11.188 -10.5,10.812 11.5,10.812 	"/>
</symbol>
<symbol  id="twitter" viewBox="-15 -15 30 30">
	<path fill="#0A4B6E" d="M11,6.869c-0.809-0.36-1.68-0.605-2.592-0.716c0.932,0.562,1.647,1.453,1.984,2.515
		C9.52,8.146,8.555,7.77,7.526,7.564C6.703,8.448,5.529,9,4.231,9C1.738,9-0.281,6.966-0.281,4.456c0-0.356,0.039-0.702,0.115-1.035
		c-3.75,0.189-7.076,1.998-9.303,4.747c-0.388-0.67-0.611-1.451-0.611-2.284c0-1.576,0.797-2.968,2.008-3.782
		c-0.74,0.024-1.436,0.229-2.043,0.568c-0.002-0.02-0.002-0.038-0.002-0.057c0-2.202,1.557-4.039,3.621-4.456
		c-0.379-0.104-0.777-0.159-1.188-0.159c-0.291,0-0.574,0.027-0.85,0.081C-7.96-3.727-6.293-5.04-4.317-5.077
		c-1.546-1.219-3.491-1.944-5.606-1.944C-10.287-7.021-10.646-7-11-6.958C-9.003-8.247-6.63-9-4.081-9
		C4.221-9,8.761-2.075,8.761,3.929c0,0.196-0.004,0.395-0.013,0.588C9.63,5.158,10.395,5.958,11,6.869z"/>
	<polygon fill="none" points="15,-15 -15,-15 -15,15 15,15 	"/>
</symbol>
<symbol  id="yellow_exclamation" viewBox="-10 -10 20 20">
	<g id="Layer_1_4_">
		<g id="yellow_exclamation_1_">
			<polygon fill="none" points="-10,10 10,10 10,-10 -10,-10 			"/>
			<polygon fill="#FFD123" points="9.5,-8 -9.5,-8 0,8.5 			"/>
			<path d="M0-3.629c0.829,0,1.5-0.643,1.5-1.437S0.829-6.5,0-6.5c-0.828,0-1.5,0.641-1.5,1.436C-1.5-4.271-0.828-3.629,0-3.629z"/>
			<polygon points="-1.426,4.5 1.43,4.5 0.931,-2.331 -0.926,-2.331 			"/>
		</g>
	</g>
</symbol>
<g id="nav-home" display="none">
	
		<use xlink:href="#icon_x5F_home_2"  width="40" height="40" id="XMLID_21_" x="-20" y="-20" transform="matrix(1 0 0 -1 10 10)" display="inline" overflow="visible"/>
</g>
<g id="nav-populations" display="none">
	
		<use xlink:href="#new_group_members"  width="40" height="40" id="XMLID_22_" x="-20" y="-20" transform="matrix(1 0 0 -1 10 10)" display="inline" overflow="visible"/>
</g>
<g id="nav-patient" display="none">
	
		<use xlink:href="#new_patient"  width="40" height="40" id="XMLID_28_" x="-20" y="-20" transform="matrix(1 0 0 -1 10 10)" display="inline" overflow="visible"/>
</g>
<g id="nav-programs" display="none">
	
		<use xlink:href="#corner_16"  width="40" height="40" id="XMLID_29_" x="-20" y="-20" transform="matrix(1 0 0 -1 10 10)" display="inline" overflow="visible"/>
</g>
<g id="nav-insights" display="none">
	
		<use xlink:href="#story_3"  width="40" height="40" id="XMLID_30_" x="-20" y="-20" transform="matrix(1 0 0 -1 10 10)" display="inline" overflow="visible"/>
</g>
<g id="nav-reports" display="none">
	
		<use xlink:href="#story_10"  width="40" height="40" id="XMLID_31_" x="-20" y="-20" transform="matrix(1 0 0 -1 10 10)" display="inline" overflow="visible"/>
</g>
<g id="nav-admin" display="none">
	
		<use xlink:href="#settings_2"  width="40" height="40" id="XMLID_32_" x="-20" y="-20" transform="matrix(1 0 0 -1 10 10)" display="inline" overflow="visible"/>
</g>
<g id="add-blue" display="none">
	
		<use xlink:href="#corner_23"  width="20" height="20" id="XMLID_9_" x="-10" y="-10" transform="matrix(1 0 0 -1 10 10)" display="inline" overflow="visible"/>
</g>
<g id="New_Symbol_6">
	<g id="corner_23_3_">
		<polygon fill="#B4B4B4" points="18,8.225 11.775,8.224 11.777,2 8.223,2 8.223,8.223 2,8.223 2,11.777 8.223,11.777 8.223,18 
			11.775,18 11.775,11.777 17.998,11.777 		"/>
		<g id="map_x5F_pointer_2_2_">
		</g>
	</g>
</g>
<g id="clock-blue" display="none">
	
		<use xlink:href="#sleep_1"  width="20" height="20" x="-10" y="-10" transform="matrix(1 0 0 -1 10 10)" display="inline" overflow="visible"/>
</g>
<g id="check-grey" display="none">
	
		<use xlink:href="#corner_3"  width="20" height="20" x="-10" y="-10" transform="matrix(1 0 0 -1 10 10)" display="inline" overflow="visible"/>
</g>
<g id="check-green" display="none">
	
		<use xlink:href="#corner_6"  width="20" height="20" x="-10" y="-10" transform="matrix(1 0 0 -1 10 10)" display="inline" overflow="visible"/>
</g>
<g id="cancel-red" display="none">
	
		<use xlink:href="#new_x"  width="20" height="20" x="-10" y="-10" transform="matrix(1 0 0 -1 10 10)" display="inline" overflow="visible"/>
</g>
<g id="arrow-orange" display="none">
	
		<use xlink:href="#orange_arrow"  width="20" height="20" id="XMLID_47_" x="-10" y="-10" transform="matrix(1 0 0 -1 10 10)" display="inline" overflow="visible"/>
</g>
<g id="alert-error" display="none">
	
		<use xlink:href="#red_warning_2"  width="20" height="20" id="XMLID_19_" x="-10" y="-10" transform="matrix(1 0 0 -1 10 10)" display="inline" overflow="visible"/>
</g>
<g id="alert-warning" display="none">
	
		<use xlink:href="#yellow_exclamation"  width="20" height="20" id="XMLID_18_" x="-10" y="-10" transform="matrix(1 0 0 -1 10 10)" display="inline" overflow="visible"/>
</g>
<g id="rx-blue" display="none">
	
		<use xlink:href="#rx_blue_icon"  width="20" height="20" x="-10" y="-10" transform="matrix(1 0 0 -1 10 10)" display="inline" overflow="visible"/>
</g>
<g id="rx-red" display="none">
	
		<use xlink:href="#full_red_rx"  width="20" height="20" id="XMLID_15_" x="-10" y="-10" transform="matrix(1 0 0 -1 10 10)" display="inline" overflow="visible"/>
</g>
<g id="otc-red" display="none">
	
		<use xlink:href="#full_red_otc"  width="20.001" height="20" id="XMLID_16_" x="-10" y="-10" transform="matrix(1 0 0 -1 10.0005 10)" display="inline" overflow="visible"/>
</g>
<g id="otc-blue" display="none">
	
		<use xlink:href="#full_blue_otc"  width="20.001" height="20" id="XMLID_17_" x="-10" y="-10" transform="matrix(1 0 0 -1 10.0005 10)" display="inline" overflow="visible"/>
</g>
<g id="pause-grey" display="none">
	
		<use xlink:href="#sleep_2"  width="20" height="20" x="-10" y="-10" transform="matrix(1 0 0 -1 10 10)" display="inline" overflow="visible"/>
</g>
<g id="flag-grey" display="none">
	
		<use xlink:href="#flag_2"  width="20" height="20" x="-10" y="-10" transform="matrix(1 0 0 -1 10 10)" display="inline" overflow="visible"/>
</g>
<g id="flag-red" display="none">
	
		<use xlink:href="#red_flag"  width="20" height="20" x="-10" y="-10" transform="matrix(1 0 0 -1 10 10)" display="inline" overflow="visible"/>
</g>
<g id="search-white" display="none">
	
		<use xlink:href="#search_x5F_small_2"  width="30" height="30" id="XMLID_45_" x="-15" y="-15" transform="matrix(1 0 0 -1 9.9995 11)" display="inline" overflow="visible"/>
</g>
<g id="search-grey" display="none">
	
		<use xlink:href="#New_Symbol_2"  width="30" height="30" x="-15" y="-15" transform="matrix(1 0 0 -1 10 10)" display="inline" overflow="visible"/>
</g>
<g id="search-blue" display="none">
	
		<use xlink:href="#New_Symbol_3"  width="30" height="30" x="-15" y="-15" transform="matrix(1 0 0 -1 10 10)" display="inline" overflow="visible"/>
</g>
<g id="calendar-blue" display="none">
	
		<use xlink:href="#corner_14"  width="30" height="30" id="XMLID_25_" x="-15" y="-15" transform="matrix(0.6667 0 0 -0.6667 10 10)" display="inline" overflow="visible"/>
</g>
<g id="calendar-grey" display="none">
	
		<use xlink:href="#New_Symbol_4"  width="30" height="30" x="-15" y="-15" transform="matrix(1 0 0 -1 10 10)" display="inline" overflow="visible"/>
</g>
<g id="phone-grey" display="none">
	
		<use xlink:href="#ico_x5F_campaign_2"  width="30" height="30" id="XMLID_59_" x="-15" y="-15" transform="matrix(0.6667 0 0 -0.6667 10 10)" display="inline" overflow="visible"/>
</g>
<g id="phone-blue" display="none">
	
		<use xlink:href="#ico_x5F_campaign_7"  width="30" height="30" id="XMLID_58_" x="-15" y="-15" transform="matrix(0.6667 0 0 -0.6667 10 10)" display="inline" overflow="visible"/>
</g>
<g id="sms-grey" display="none">
	
		<use xlink:href="#story"  width="30" height="30" id="XMLID_56_" x="-15" y="-15" transform="matrix(0.6667 0 0 -0.6667 10 10)" display="inline" overflow="visible"/>
</g>
<g id="sms-blue" display="none">
	
		<use xlink:href="#story_12"  width="30" height="30" id="XMLID_55_" x="-15" y="-15" transform="matrix(0.6667 0 0 -0.6667 10 10)" display="inline" overflow="visible"/>
</g>
<g id="address-blue" display="none">
	
		<use xlink:href="#place_marker"  width="30" height="30" id="XMLID_57_" x="-15" y="-15" transform="matrix(0.6667 0 0 -0.6667 10 10)" display="inline" overflow="visible"/>
</g>
<g id="address-grey" display="none">
	
		<use xlink:href="#gray_place_marker"  width="30" height="30" id="XMLID_53_" x="-15" y="-15" transform="matrix(0.6667 0 0 -0.6667 10 10)" display="inline" overflow="visible"/>
</g>
<g id="printer-blue" display="none">
	
		<use xlink:href="#dark_blue_printer"  width="30" height="30" id="XMLID_54_" x="-15" y="-15" transform="matrix(0.6667 0 0 -0.6667 10 10)" display="inline" overflow="visible"/>
</g>
<g id="printer-grey" display="none">
	
		<use xlink:href="#grey_printer"  width="30" height="30" id="XMLID_52_" x="-15" y="-15" transform="matrix(0.6667 0 0 -0.6667 10 10)" display="inline" overflow="visible"/>
</g>
<g id="edit-blue" display="none">
	
		<use xlink:href="#k_x5F_edit_2"  width="20.001" height="20" x="-10" y="-10" transform="matrix(1 0 0 -1 10.0005 10)" display="inline" overflow="visible"/>
</g>
<g id="edit-grey" display="none">
	
		<use xlink:href="#New_Symbol_10"  width="20" height="20" x="-10" y="-10" transform="matrix(1 0 0 -1 10.0005 10)" display="inline" overflow="visible"/>
</g>
<g id="cancel-grey" display="none">
	
		<use xlink:href="#corner_29"  width="20" height="20" x="-10" y="-10" transform="matrix(1 0 0 -1 10 10)" display="inline" overflow="visible"/>
</g>
<g id="cancel-blue" display="none">
	
		<use xlink:href="#corner_4"  width="20" height="20" x="-10" y="-10" transform="matrix(1 0 0 -1 10 10)" display="inline" overflow="visible"/>
</g>
<g id="pointer-down" display="none">
	
		<use xlink:href="#pointer_x5F_nav"  width="15" height="10" id="XMLID_27_" x="-7.5" y="-5" transform="matrix(1 0 0 -1 10 10)" display="inline" overflow="visible"/>
</g>
<g id="pointer-left" display="none">
	
		<use xlink:href="#pointer_x5F_large"  width="20" height="30" id="XMLID_26_" x="-10" y="-15" transform="matrix(1 0 0 -1 10 10)" display="inline" overflow="visible"/>
</g>
<g id="pointer-right" display="none">
	
		<use xlink:href="#pointer_x5F_large"  width="20" height="30" x="-10" y="-15" transform="matrix(-1 0 0 -1 10 10)" display="inline" overflow="visible"/>
</g>
<g id="fullscreen-exit" display="none">
	
		<use xlink:href="#corner_28"  width="20" height="20" id="XMLID_2_" x="-10" y="-10" transform="matrix(1 0 0 -1 10 10)" display="inline" overflow="visible"/>
</g>
<g id="fullscreen-enter" display="none">
	
		<use xlink:href="#corner_20"  width="20" height="20" id="XMLID_1_" x="-10" y="-10" transform="matrix(1 0 0 -1 10 10)" display="inline" overflow="visible"/>
</g>
<g id="single-arrow-left" display="none">
	
		<use xlink:href="#corner_22"  width="20" height="20" id="XMLID_3_" x="-10" y="-10" transform="matrix(1 0 0 -1 10 10)" display="inline" overflow="visible"/>
</g>
<g id="single-arrow-right" display="none">
	
		<use xlink:href="#right_arrow"  width="20" height="20" id="XMLID_4_" x="-10" y="-10" transform="matrix(1 0 0 -1 10 10)" display="inline" overflow="visible"/>
</g>
<g id="single-arrow-up" display="none">
	
		<use xlink:href="#corner_11"  width="20" height="20" id="XMLID_5_" x="-10" y="-10" transform="matrix(1 0 0 -1 10 10)" display="inline" overflow="visible"/>
</g>
<g id="single-arrow-down" display="none">
	
		<use xlink:href="#down_arrow"  width="20" height="20" id="XMLID_6_" x="-10" y="-10" transform="matrix(1 0 0 -1 10 10)" display="inline" overflow="visible"/>
</g>
<g id="double-arrow-left" display="none">
	
		<use xlink:href="#corner_12"  width="20" height="20" id="XMLID_7_" x="-10" y="-10" transform="matrix(1 0 0 -1 10 10)" display="inline" overflow="visible"/>
</g>
<g id="double-arrow-right" display="none">
	
		<use xlink:href="#double_right_arrow"  width="20" height="20" id="XMLID_8_" x="-10" y="-10" transform="matrix(1 0 0 -1 10 10)" display="inline" overflow="visible"/>
</g>
<g id="double-arrow-up" display="none">
	
		<use xlink:href="#corner_21"  width="20" height="20" id="XMLID_11_" x="-10" y="-10" transform="matrix(1 0 0 -1 10 10)" display="inline" overflow="visible"/>
</g>
<g id="double-arrow-down" display="none">
	
		<use xlink:href="#double_down"  width="20" height="20" id="XMLID_10_" x="-10" y="-10" transform="matrix(1 0 0 -1 10 10)" display="inline" overflow="visible"/>
</g>
<g id="email-blue" display="none">
	
		<use xlink:href="#blue_mailbox"  width="30" height="30" x="-15" y="-15" transform="matrix(0.6667 0 0 -0.6667 10 10)" display="inline" overflow="visible"/>
</g>
<g id="email-grey" display="none">
	
		<use xlink:href="#grey_mail"  width="30" height="30" id="XMLID_50_" x="-15" y="-15" transform="matrix(0.6667 0 0 -0.6667 10 10)" display="inline" overflow="visible"/>
</g>
<g id="patient-female" display="none">
	
		<use xlink:href="#new_female"  width="40" height="40" id="XMLID_61_" x="-20" y="-20" transform="matrix(0.75 0 0 -0.75 10 10)" display="inline" overflow="visible"/>
</g>
<g id="patient-neutral" display="none">
	
		<use xlink:href="#New_Symbol"  width="30" height="30" x="-15" y="-15" transform="matrix(1 0 0 -1 10 10)" display="inline" overflow="visible"/>
</g>
<g id="patient-male" display="none">
	
		<use xlink:href="#heavy_male"  width="40" height="40" id="XMLID_20_" x="-20" y="-20" transform="matrix(0.75 0 0 -0.75 10 10)" display="inline" overflow="visible"/>
</g>
<g id="arrow-left" display="none">
	
		<use xlink:href="#corner_27"  width="20" height="20" id="XMLID_63_" x="-10" y="-10" transform="matrix(1.5 0 0 -1.5 10 10)" display="inline" overflow="visible"/>
</g>
<g id="arrow-right" display="none">
	
		<use xlink:href="#corner_27"  width="20" height="20" x="-10" y="-10" transform="matrix(-1.5 0 0 -1.5 10 10)" display="inline" overflow="visible"/>
</g>
<g id="table-blue" display="none">
	
		<use xlink:href="#New_Symbol_13"  width="20" height="20" x="-10" y="-10" transform="matrix(1 0 0 -1 10 10)" display="inline" overflow="visible"/>
</g>
<g id="table-grey" display="none">
	
		<use xlink:href="#New_Symbol_12"  width="20" height="20" x="-10" y="-10" transform="matrix(1 0 0 -1 10 10)" display="inline" overflow="visible"/>
</g>
<g id="carat-down-blue" display="none">
	
		<use xlink:href="#corner_5"  width="20" height="20" id="XMLID_13_" x="-10" y="-10" transform="matrix(1 0 0 -1 10 10)" display="inline" overflow="visible"/>
</g>
<g id="carat-down-grey" display="none">
	
		<use xlink:href="#New_Symbol_1"  width="20" height="20" x="-10" y="-10" transform="matrix(1 0 0 -1 10 10)" display="inline" overflow="visible"/>
</g>
<g id="carat-down-white" display="none">
	
		<use xlink:href="#New_Symbol_7"  width="20" height="20" x="-10" y="-10" transform="matrix(1 0 0 -1 10 10)" display="inline" overflow="visible"/>
</g>
<g id="settings-light-blue" display="none">
	
		<use xlink:href="#settings_3"  width="20" height="20" x="-10" y="-10" transform="matrix(1 0 0 -1 10 10)" display="inline" overflow="visible"/>
</g>
<g id="settings-white" display="none">
	
		<use xlink:href="#settings_4"  width="20" height="20" x="-10" y="-10" transform="matrix(1 0 0 -1 10 10)" display="inline" overflow="visible"/>
</g>
<g id="settigns-grey" display="none">
	
		<use xlink:href="#New_Symbol_8"  width="20" height="20" x="-10" y="-10" transform="matrix(1 0 0 -1 10 10)" display="inline" overflow="visible"/>
</g>
<g id="settings-blue" display="none">
	
		<use xlink:href="#New_Symbol_9"  width="20" height="20" x="-10" y="-10" transform="matrix(1 0 0 -1 10 10)" display="inline" overflow="visible"/>
</g>
<g id="priority-high" display="none">
	
		<use xlink:href="#New_Symbol_14"  width="20" height="20" x="-10" y="-10" transform="matrix(1 0 0 -1 10 10)" display="inline" overflow="visible"/>
</g>
<g id="priority-medium" display="none">
	
		<use xlink:href="#priority_x5F_medium"  width="20" height="20" x="-10" y="-10" transform="matrix(1 0 0 -1 10 10)" display="inline" overflow="visible"/>
</g>
<g id="priority-low" display="none">
	
		<use xlink:href="#New_Symbol_15"  width="20" height="20" x="-10" y="-10" transform="matrix(1 0 0 -1 10 10)" display="inline" overflow="visible"/>
</g>
<g id="twitter-grey" display="none">
	
		<use xlink:href="#New_Symbol_16"  width="20" height="20" x="-10" y="-10" transform="matrix(1 0 0 -1 10 10)" display="inline" overflow="visible"/>
</g>
<g id="twitter-blue" display="none">
	
		<use xlink:href="#twitter"  width="30" height="30" x="-15" y="-15" transform="matrix(0.6666 0 0 -0.6666 10 10)" display="inline" overflow="visible"/>
</g>
<g id="menu" display="none">
	
		<use xlink:href="#Menu_2"  width="20" height="20" x="-10" y="-10" transform="matrix(1 0 0 -1 10 10)" display="inline" overflow="visible"/>
</g>
<g id="quick-add-call" display="none">
	
		<use xlink:href="#New_Symbol_17"  width="20" height="20" x="-10" y="-10" transform="matrix(1 0 0 -1 10 10)" display="inline" overflow="visible"/>
</g>
<g id="quick-add-notes" display="none">
	
		<use xlink:href="#New_Symbol_19"  width="20" height="20" x="-10" y="-10" transform="matrix(1 0 0 -1 10 10)" display="inline" overflow="visible"/>
</g>
<g id="quick-add-metrics" display="none">
	
		<use xlink:href="#New_Symbol_18"  width="20" height="20" x="-10" y="-10" transform="matrix(1 0 0 -1 10 10)" display="inline" overflow="visible"/>
</g>
<g id="quick-add-assign" display="none">
	
		<use xlink:href="#New_Symbol_20"  width="20" height="20" x="-10" y="-10" transform="matrix(1 0 0 -1 10 10)" display="inline" overflow="visible"/>
</g>
</svg>
