<?xml version="1.0" encoding="utf-8"?>
<!-- Generator: Adobe Illustrator 16.0.4, SVG Export Plug-In . SVG Version: 6.00 Build 0)  -->
<!DOCTYPE svg PUBLIC "-//W3C//DTD SVG 1.1//EN" "http://www.w3.org/Graphics/SVG/1.1/DTD/svg11.dtd">
<svg version="1.1" id="Layer_1" xmlns="http://www.w3.org/2000/svg" xmlns:xlink="http://www.w3.org/1999/xlink" x="0px" y="0px"
	 width="30px" height="30px" viewBox="0 0 30 30" enable-background="new 0 0 30 30" xml:space="preserve">
<path fill="#C0C0C0" d="M27.586,13.111C27.586,8.355,21.95,4.5,15,4.5S2.414,8.355,2.414,13.111c0,4.603,5.282,8.35,11.922,8.587
	V27.5l10.354-8.895c0.022-0.02,0.045-0.037,0.066-0.059l0.182-0.154h-0.013C26.587,16.934,27.586,15.104,27.586,13.111z
	 M8.798,16.753c-1.396,0-2.525-0.668-2.551-2.183h1.07c0,0.941,0.693,1.31,1.549,1.31c0.942,0,1.292-0.462,1.292-0.925
	c0-0.471-0.257-0.659-0.505-0.753c-0.428-0.163-0.984-0.274-1.823-0.505c-1.044-0.283-1.353-0.916-1.353-1.55
	c0-1.224,1.13-1.798,2.234-1.798c1.275,0,2.345,0.677,2.345,1.952h-1.07c-0.052-0.788-0.582-1.079-1.318-1.079
	c-0.497,0-1.122,0.18-1.122,0.797c0,0.428,0.291,0.667,0.728,0.787c0.094,0.025,1.447,0.377,1.764,0.471
	c0.805,0.24,1.19,0.925,1.19,1.559C11.229,16.205,10.014,16.753,8.798,16.753z M18.49,16.607h-1.019v-4.717h-0.017l-1.695,4.717
	h-0.882l-1.695-4.717h-0.017v4.717h-1.019v-6.112h1.507l1.686,4.785h0.018l1.644-4.785h1.489V16.607z M21.96,16.753
	c-1.396,0-2.525-0.668-2.551-2.183h1.069c0,0.941,0.693,1.31,1.55,1.31c0.942,0,1.292-0.462,1.292-0.925
	c0-0.471-0.256-0.659-0.504-0.753c-0.429-0.163-0.984-0.274-1.824-0.505c-1.044-0.283-1.352-0.916-1.352-1.55
	c0-1.224,1.129-1.798,2.234-1.798c1.275,0,2.345,0.677,2.345,1.952H23.15c-0.052-0.788-0.582-1.079-1.318-1.079
	c-0.497,0-1.122,0.18-1.122,0.797c0,0.428,0.291,0.667,0.728,0.787c0.094,0.025,1.447,0.377,1.764,0.471
	c0.805,0.24,1.189,0.925,1.189,1.559C24.391,16.205,23.176,16.753,21.96,16.753z"/>
</svg>
