<?xml version="1.0" standalone="no"?>
<!DOCTYPE svg PUBLIC "-//W3C//DTD SVG 1.1//EN" "http://www.w3.org/Graphics/SVG/1.1/DTD/svg11.dtd" >
<!--
2015-4-30: Created.
-->
<svg xmlns="http://www.w3.org/2000/svg">
<metadata>
Created by FontForge 20120731 at Thu Apr 30 12:43:43 2015
 By Cody Wackerman
Created by Cody Wackerman with FontForge 2.0 (http://fontforge.sf.net)
</metadata>
<defs>
<font id="fontcustom" horiz-adv-x="512" >
  <font-face 
    font-family="fontcustom"
    font-weight="500"
    font-stretch="normal"
    units-per-em="512"
    panose-1="2 0 6 3 0 0 0 0 0 0"
    ascent="448"
    descent="-64"
    bbox="0 -64 512 448"
    underline-thickness="25.6"
    underline-position="-51.2"
    unicode-range="U+0020-F135"
  />
    <missing-glyph />
    <glyph glyph-name="space" unicode=" " horiz-adv-x="200" 
 />
    <glyph glyph-name="uniF135" unicode="&#xf135;" 
d="M256 -56.0127c-134.093 0 -243.2 109.133 -243.2 243.2c0 134.093 109.107 243.199 243.2 243.199s243.2 -109.106 243.2 -243.199c0 -134.067 -109.107 -243.2 -243.2 -243.2zM256 370.56c-101.095 0 -183.348 -82.2266 -183.348 -183.347
c0 -101.095 82.2275 -183.373 183.348 -183.373c101.068 0 183.321 82.2783 183.321 183.373s-82.2529 183.347 -183.321 183.347zM223.564 192.486l-4.17285 62.2334c-0.818359 12.7236 -1.20312 21.6064 -1.20312 27.1875c0 11.9297 3.55859 21.7598 10.5732 29.2607
c7.21875 7.70605 16.9473 11.8018 28.1602 11.8018c14.3105 0 25.7275 -6.55371 31.3086 -17.9717c3.78906 -7.75684 5.60645 -17.6123 5.60645 -30.208c0 -6.29688 -0.358398 -12.7227 -0.998047 -19.0977l-5.53027 -63.4619
c-0.844727 -10.1123 -2.63672 -17.7666 -5.70898 -23.9619c-4.94043 -10.2139 -14.7705 -16.333 -26.2393 -16.333c-11.6738 0 -21.5039 6.19531 -26.3174 16.5381c-2.73926 6.01562 -4.47949 13.6191 -5.47852 24.0127zM229.171 110.208
c14.2852 14.2852 38.7588 14.3613 53.4023 0.205078c7.39844 -7.24512 11.2637 -16.5127 11.2637 -26.8037c0 -11.3408 -4.14746 -20.9658 -12.0068 -27.9033c-7.16797 -6.40039 -16.0762 -9.80566 -25.6768 -9.80566c-9.59961 0 -18.5088 3.32812 -25.7793 9.62598
c-7.96094 6.98926 -12.1855 16.666 -12.1855 28.083c0 10.2148 3.78906 19.4307 10.9824 26.5986z" />
    <glyph glyph-name="uniF10C" unicode="&#xf10c;" 
d="M384 320h-256v-256h256v256zM409.6 345.6v0v-307.199h-307.199v307.199h307.199zM430.08 374.4l-157.338 -297.601l-142.541 133.453l45.7988 52.1475l76.7998 -76.8008l118.4 224z" />
    <glyph glyph-name="uniF12E" unicode="&#xf12e;" 
d="M470.801 224.239c0 -34.0146 -17.0488 -65.2461 -45.4141 -90.1289h0.22168l-3.10645 -2.62891c-0.358398 -0.375 -0.75 -0.665039 -1.12598 -1.00684l-176.708 -151.808v99.0205c-113.323 4.04492 -203.469 67.9932 -203.469 146.552
c0 81.1689 96.1875 146.961 214.801 146.961s214.801 -65.792 214.801 -146.961zM150.152 162.082c20.7529 0 41.4893 9.35254 41.4727 32.7168c0 10.8203 -6.57129 22.5107 -20.3096 26.6074c-5.41016 1.60352 -28.502 7.61133 -30.1055 8.03809
c-7.45801 2.04785 -12.4248 6.12695 -12.4248 13.4316c0 10.5303 10.667 13.6016 19.1484 13.6016c12.5615 0 21.6064 -4.96582 22.4941 -18.415h18.2617c0 21.7607 -18.2617 33.3145 -40.0215 33.3145c-18.8418 0 -38.127 -9.7959 -38.127 -30.6855
c0 -10.8203 5.27344 -21.624 23.0908 -26.4531c14.3193 -3.94238 23.8086 -5.83691 31.1123 -8.61914c4.2334 -1.60449 8.61914 -4.8125 8.61914 -12.8516c0 -7.90137 -5.97363 -15.7861 -22.0498 -15.7861c-14.6094 0 -26.4365 6.29785 -26.4365 22.3574h-18.2617
c0.444336 -25.8564 19.7119 -37.2568 43.5371 -37.2568zM315.562 164.574v104.312h-25.4121l-28.0576 -81.6641h-0.307617l-28.7744 81.6641h-25.7188v-104.312h17.3906v80.5029h0.290039l28.9277 -80.5029h15.0527l28.9287 80.5029h0.290039v-80.5029h17.3906z
M374.784 162.082c20.7529 0 41.4893 9.35254 41.4893 32.7168c0 10.8203 -6.55371 22.5107 -20.293 26.6074c-5.41016 1.60352 -28.501 7.61133 -30.1055 8.03809c-7.45801 2.04785 -12.4248 6.12695 -12.4248 13.4316c0 10.5303 10.667 13.6016 19.1494 13.6016
c12.5605 0 21.6064 -4.96582 22.4941 -18.415h18.2441c0 21.7607 -18.2617 33.3145 -40.0215 33.3145c-18.8584 0 -38.127 -9.7959 -38.127 -30.6855c0 -10.8203 5.25684 -21.624 23.0742 -26.4531c14.3359 -3.94238 23.8076 -5.83691 31.1299 -8.61914
c4.23242 -1.60449 8.60156 -4.8125 8.60156 -12.8516c0 -7.90137 -5.97363 -15.7861 -22.0508 -15.7861c-14.626 0 -26.4531 6.29785 -26.4531 22.3574h-18.2441c0.443359 -25.8564 19.7119 -37.2568 43.5371 -37.2568z" />
    <glyph glyph-name="uniF132" unicode="&#xf132;" 
d="M443.733 309.23c-10.3252 -15.5469 -23.3818 -29.2002 -38.4346 -40.1406c0.154297 -3.31055 0.222656 -6.68945 0.222656 -10.0352c0 -102.468 -77.4834 -220.654 -219.171 -220.654c-43.5029 0 -84.002 12.8506 -118.084 34.8496
c6.04199 -0.716797 12.1689 -1.0752 18.3809 -1.0752c36.0957 0 69.291 12.373 95.6758 33.1777c-33.7236 0.631836 -62.1738 23.04 -71.9697 53.8623c4.70996 -0.921875 9.54004 -1.38184 14.5059 -1.38184c7.01465 0 13.8076 0.938477 20.2754 2.71289
c-35.2256 7.11719 -61.7979 38.4688 -61.7979 76.0488c0 0.325195 0 0.631836 0.0341797 0.973633c10.3594 -5.78613 22.2549 -9.28418 34.8672 -9.69434c-20.668 13.8926 -34.2705 37.6494 -34.2705 64.5459c0 14.2168 3.82324 27.5459 10.4111 38.9805
c38.0068 -46.916 94.7705 -77.79 158.771 -81.0156c-1.29688 5.68359 -1.96191 11.5889 -1.96191 17.6641c0 42.8379 34.4746 77.5508 77.0215 77.5508c22.1523 0 42.1885 -9.41992 56.2344 -24.5078c17.5449 3.5166 34.0146 9.9502 48.9131 18.8418
c-5.75098 -18.125 -17.9541 -33.3135 -33.8604 -42.9229c15.5654 1.89453 30.4307 6.07617 44.2373 12.2197z" />
    <glyph glyph-name="uniF103" unicode="&#xf103;" 
d="M135.91 25.626l-46.3105 32.0254l107.06 134.399l-107.033 134.35l46.3359 32.0254l132.838 -166.375l-0.0253906 -0.0507812h0.0253906zM289.511 25.626l-46.3105 32.0254l107.059 134.399l-107.033 134.35l46.3359 32.0254l132.839 -166.375l-0.0263672 -0.0507812
h0.0263672z" />
    <glyph glyph-name="uniF134" unicode="&#xf134;" 
d="M471.321 19.584c8.55078 -14.7715 1.61328 -26.8027 -15.4365 -26.8027h-399.795c-17.0244 0 -23.9619 12.0576 -15.4375 26.7773l199.859 344.883c8.55078 14.7461 22.5283 14.7461 31.0527 0zM273.356 47.1553c5.09473 4.50586 7.68066 10.6494 7.6543 18.3037
c0 6.91211 -2.48242 12.7998 -7.37207 17.6133c-4.88965 4.73535 -10.8545 7.19336 -17.7666 7.19336s-12.8516 -2.43164 -17.6387 -7.24512c-4.8125 -4.8125 -7.24414 -10.7002 -7.24414 -17.5615c0 -7.75684 2.61035 -13.9004 7.78223 -18.4062
c4.96582 -4.30078 10.8027 -6.50195 17.3818 -6.50195c6.52832 0 12.3398 2.25195 17.2031 6.60449zM280.09 216.474c0.614258 5.93945 0.947266 11.9297 0.947266 17.792c0 10.5986 -1.4082 18.6367 -4.30078 24.5762c-2.40625 4.91504 -7.7832 10.7773 -19.8145 10.7773
c-7.68066 0 -14.0039 -2.61133 -18.8164 -7.75684c-4.73633 -5.04297 -7.11621 -11.9551 -7.11621 -20.5059c0 -5.40137 0.383789 -14.0283 1.17676 -26.3164l4.12207 -61.9004c0.844727 -8.83203 2.25293 -15.2832 4.35156 -19.8408
c2.71387 -5.83691 7.91113 -9.08789 14.6943 -9.08789c6.65625 0 11.8789 3.25098 14.7715 9.19043c2.33008 4.71094 3.76367 11.0596 4.42871 19.4053z" />
    <glyph glyph-name="uniF105" unicode="&#xf105;" 
d="M409.6 219.469v-54.9121h-214.349l82.0996 -100.685l-45.21 -30.541l-129.74 158.669l0.0253906 0.0507812h-0.0253906l129.792 158.618l45.1836 -30.541l-82.125 -100.659h214.349z" />
    <glyph glyph-name="uniF130" unicode="&#xf130;" 
d="M281.6 268.8v51.2002h204.801v-51.2002h-204.801zM281.6 192v51.2002h204.801v-51.2002h-204.801zM281.6 115.2v51.2002h204.801v-51.2002h-204.801zM281.6 38.4004v51.1992h204.801v-51.1992h-204.801zM25.5996 268.8v51.2002h204.801v-51.2002h-204.801zM25.5996 192
v51.2002h204.801v-51.2002h-204.801zM25.5996 115.2v51.2002h204.801v-51.2002h-204.801zM25.5996 38.4004v51.1992h204.801v-51.1992h-204.801z" />
    <glyph glyph-name="uniF109" unicode="&#xf109;" 
d="M396.8 281.574l-89.625 -89.5996l89.5996 -89.6006l-51.1748 -51.1484l-89.5996 89.5742l-89.5996 -89.5996l-51.2002 51.2002l89.625 89.5996l-89.625 89.5996l51.2002 51.2002l89.5996 -89.625l89.626 89.5996z" />
    <glyph glyph-name="uniF124" unicode="&#xf124;" 
d="M256 19.7373c-94.9756 0 -172.263 77.2871 -172.263 172.263s77.2871 172.263 172.263 172.263c95.002 0 172.263 -77.2871 172.263 -172.263c0 -95.002 -77.2607 -172.263 -172.263 -172.263zM256 339.737c-81.459 0 -147.737 -66.2783 -147.737 -147.737
s66.2783 -147.737 147.737 -147.737s147.737 66.2783 147.737 147.737s-66.2783 147.737 -147.737 147.737z" />
    <glyph glyph-name="uniF108" unicode="&#xf108;" 
d="M142.617 163.123c0.256836 17.127 2.35547 30.9502 10.3174 40.8066c7.96191 9.85547 21.5547 15.4619 44.0576 15.4619c43.5967 0 53.4521 -20.377 53.4521 -45.2344c0 -22.5029 -8.19141 -36.8135 -20.6328 -49.2295l-25.7539 -25.0879
c-3.7373 -3.7373 -9.13965 -8.7041 -10.8027 -13.5674h57.1895v-32.8193h-109.209c0 22.9375 5.8623 44.1084 24.8574 63.4873l29.0557 29.543c8.44824 8.37109 11.7256 14.7197 11.7256 27.1865c0 14.0801 -4.45508 18.5352 -11.2393 18.5352
c-6.09277 0 -12.1855 -3.27734 -12.1855 -21.9902v-7.01465l-40.832 -0.0771484v0zM260.71 102.682c0 20.1475 9.37012 35.8398 27.6484 38.1953v0.486328c-19.4561 4.73633 -24.5508 18.9951 -24.5508 33.5615c0 26.4961 14.9512 44.5186 53.4023 44.5186
s53.4521 -18.0225 53.4521 -44.5186c0 -14.4893 -5.14551 -28.8252 -24.6016 -33.5615v-0.486328c19.8662 -3.5332 27.6484 -19.7373 27.6484 -38.1953c0 -41.0371 -20.8125 -52.5059 -56.499 -52.5059c-35.4053 0 -56.5 11.4688 -56.5 52.5059zM317.21 77.3379
c7.9873 0 12.9023 4.86328 12.9023 24.6016c0 19.4814 -4.88965 24.3965 -12.9023 24.3965c-7.9873 0 -12.9023 -4.91504 -12.9023 -24.3965c0 -19.6611 4.91504 -24.6016 12.9023 -24.6016zM317.21 152.09c6.06641 0 11.2129 3.7373 11.2129 20.1465
c0 16.1543 -5.14648 19.8916 -11.2129 19.8916c-6.09277 0 -11.2129 -3.7373 -11.2129 -19.8916c-0.0771484 -16.3584 5.09375 -20.1465 11.2129 -20.1465zM421.709 371.2h30.5664v-392.525h-392.551v392.525h30.5664c3.30273 21.8105 18.9189 38.3994 37.709 38.3994
s34.4062 -16.5889 37.709 -38.3994h9.90723c3.30176 21.8105 18.918 38.3994 37.709 38.3994c18.79 0 34.4062 -16.5889 37.708 -38.3994h9.90723c3.32812 21.8105 18.9443 38.3994 37.7344 38.3994c18.791 0 34.4072 -16.5889 37.709 -38.3994h9.90723
c3.30273 21.8105 18.9443 38.3994 37.709 38.3994s34.4062 -16.5889 37.709 -38.3994zM384 384c-4.53125 0 -9.44629 -5.12012 -11.6221 -12.7998h23.2441c-2.17578 7.67969 -7.09082 12.7998 -11.6221 12.7998zM298.675 384
c-4.53125 0 -9.44629 -5.12012 -11.6475 -12.7998h23.2705c-2.17578 7.67969 -7.0918 12.7998 -11.623 12.7998zM213.325 384c-4.53125 0 -9.44727 -5.12012 -11.623 -12.7998h23.2451c-2.17578 7.67969 -7.09082 12.7998 -11.6221 12.7998zM128 384
c-4.53125 0 -9.44629 -5.12012 -11.6221 -12.7998h23.2441c-2.17578 7.67969 -7.09082 12.7998 -11.6221 12.7998zM401.075 29.875v238.592h-290.15v-238.592h290.15z" />
    <glyph glyph-name="uniF10A" unicode="&#xf10a;" 
d="M407.398 320.922l-160.23 -303.975l-142.566 133.453l33.2549 61.8496l82.4062 -77.6709l115.84 215.168z" />
    <glyph glyph-name="uniF131" unicode="&#xf131;" 
d="M243.2 268.8h118.399l-59.1865 -89.5996l-59.2129 -89.6006l-59.2129 89.6006l-59.1875 89.5996h118.4z" />
    <glyph glyph-name="uniF112" unicode="&#xf112;" 
d="M256 358.4c91.9551 0 166.4 -74.4453 166.4 -166.4s-74.4453 -166.4 -166.4 -166.4s-166.4 74.4453 -166.4 166.4s74.4453 166.4 166.4 166.4zM334.208 69.1455l44.6465 44.6465l-78.1826 78.1826l78.208 78.1826l-44.6719 44.6973l-78.208 -78.1826l-78.208 78.208
l-44.6719 -44.6719l78.208 -78.208l-78.208 -78.208l44.6719 -44.6719l78.208 78.208z" />
    <glyph glyph-name="uniF110" unicode="&#xf110;" 
d="M435.2 227.2h-51.2002v-137.601h-256v204.801h189.425v51.1992h-240.625v-307.199h358.4v188.8zM342.775 115.2v51.2002h-86.7559l-0.0195312 86.7803l-51.2002 -0.0117188l0.03125 -137.969h137.944zM453.303 327.499l-36.2061 36.2021l-204.774 -204.801
l36.2061 -36.2012z" />
    <glyph glyph-name="uniF102" unicode="&#xf102;" 
d="M376.09 358.4l46.3105 -32.0264l-107.06 -134.374l107.033 -134.374l-46.3359 -32.0264l-132.838 166.4l0.0253906 0.0507812h-0.0253906zM222.489 358.4l46.3105 -32.0264l-107.059 -134.374l107.033 -134.374l-46.3359 -32.0264l-132.839 166.4l0.0263672 0.0507812
h-0.0263672z" />
    <glyph glyph-name="uniF118" unicode="&#xf118;" 
d="M435.2 294.4c0 -14.0801 -11.5205 -25.6006 -25.6006 -25.6006h-307.199c-14.0801 0 -25.6006 11.5205 -25.6006 25.6006v25.5996c0 14.0801 11.5205 25.5996 25.6006 25.5996h307.199c14.0801 0 25.6006 -11.5195 25.6006 -25.5996v-25.5996zM435.2 166.4
c0 -14.0801 -11.5205 -25.6006 -25.6006 -25.6006h-307.199c-14.0801 0 -25.6006 11.5205 -25.6006 25.6006v25.5996c0 14.0801 11.5205 25.5996 25.6006 25.5996h307.199c14.0801 0 25.6006 -11.5195 25.6006 -25.5996v-25.5996zM435.2 38.4004
c0 -14.0801 -11.5205 -25.6006 -25.6006 -25.6006h-307.199c-14.0801 0 -25.6006 11.5205 -25.6006 25.6006v25.5996c0 14.0801 11.5205 25.5996 25.6006 25.5996h307.199c14.0801 0 25.6006 -11.5195 25.6006 -25.5996v-25.5996z" />
    <glyph glyph-name="uniF127" unicode="&#xf127;" 
d="M222.105 287.437c20.4033 0 43.3662 -3.60938 43.3408 -28.416c0 -24.7549 -22.9375 -28.3896 -43.3408 -28.3896h-6.04102v56.8057h6.04102zM51.2002 396.8h409.6v-396.8l-81.5869 84.0449l67.5322 71.0654h-74.8535l-29.3379 -32.0771l-8.24316 9.0625
l-56.4229 66.1768c34.0742 5.75977 52.5566 32.9727 52.5566 64.4092c0 48.6396 -36.0439 70.1182 -83.5068 70.1182h-93.3379v-227.942h62.4648v87.6807h0.639648l89.2158 -108.519l-81.6123 -84.0195h76.1592l42.0615 45.9775l42.0859 -45.9775h76.1855v-12.7998h-409.6
v409.6z" />
    <glyph glyph-name="uniF121" unicode="&#xf121;" 
d="M128 192c0 85.3333 42.6667 128 128 128s128 -42.6667 128 -128c0 -85.3333 -42.6667 -128 -128 -128s-128 42.6667 -128 128z" />
    <glyph glyph-name="uniF133" unicode="&#xf133;" 
d="M271.104 51.9678l-2.73828 25.4463c7.98633 0.871094 15.9229 2.56055 23.5 5.04395l7.96191 -24.3457c-9.29297 -3.02148 -18.9443 -5.09473 -28.7236 -6.14453zM212.94 57.8818c-9.36914 3.02051 -18.4316 7.01465 -26.9307 11.9033l12.7744 22.1953
c6.91211 -3.99316 14.3105 -7.24414 21.9648 -9.70215zM350.387 87.5264l-17.2031 18.9697c6.0166 5.42676 11.4434 11.4434 16.1279 17.8945l20.7109 -15.0527c-5.73438 -7.85938 -12.3389 -15.207 -19.6357 -21.8115zM142.464 108.697
c-5.81152 7.88477 -10.8027 16.4355 -14.8477 25.3701l23.3213 10.5469c3.30273 -7.34668 7.39844 -14.3359 12.1348 -20.7871zM393.779 162.816l-25.0625 5.27344c1.66406 7.80762 2.4834 15.8457 2.4834 23.9102l25.5996 1.51074v-1.51074
c0 -9.83008 -1.02344 -19.6611 -3.02051 -29.1836zM115.2 191.258v0.742188c0 9.52344 0.972656 19.0723 2.86719 28.3906l25.0625 -5.09473c-1.53613 -7.6543 -2.33008 -15.4883 -2.33008 -23.2959zM360.755 240c-3.35352 7.2959 -7.5 14.2588 -12.2617 20.6846
l20.5566 15.2832c5.81055 -7.85938 10.8545 -16.3584 14.9502 -25.2666zM162.304 259.072l-20.7871 14.9248c5.73438 7.9873 12.2627 15.3594 19.5078 21.9648l17.2793 -18.8936c-5.93848 -5.42676 -11.3145 -11.4688 -16 -17.9961zM312.602 292.352
c-6.98828 3.96875 -14.3867 7.16797 -22.0156 9.5752l7.6543 24.4219c9.34375 -2.94336 18.4316 -6.88672 26.9824 -11.7246zM219.494 301.312l-8.11523 24.2695c9.31836 3.12305 18.9951 5.24805 28.7236 6.32324l2.81543 -25.4463
c-7.93555 -0.871094 -15.8203 -2.61133 -23.4238 -5.14648z" />
    <glyph glyph-name="uniF12F" unicode="&#xf12f;" horiz-adv-x="511" 
d="M288.87 222.976c0 -6.91113 -1.43359 -11.9805 -4.25 -15.2061c-2.8418 -3.22559 -6.9375 -4.8125 -12.2881 -4.8125h-8.08887v40.0635h8.08887c11.0078 0 16.5381 -6.68164 16.5381 -20.0449zM480 190.797c0 -123.699 -100.302 -224 -224 -224
c-123.699 0 -224 100.301 -224 224c0 123.725 100.274 224 224 224c123.725 0 224 -100.275 224 -224zM207.743 156.877c0 9.9834 -1.68945 18.0986 -5.14551 24.3203c-3.45605 6.2207 -7.80762 11.2637 -13.0557 15.0781
c-5.19727 3.83984 -10.8037 6.9375 -16.7939 9.34375c-5.99023 2.35547 -11.5967 4.71094 -16.793 7.01465c-5.24805 2.30371 -9.60059 5.01758 -13.0566 8.16602c-3.45605 3.14941 -5.14551 7.39844 -5.14551 12.7744c0 3.71191 1.0498 7.04004 3.22559 10.0098
c2.15039 2.99512 5.53027 4.50586 10.1377 4.50586c4.14746 0 7.19336 -1.71582 9.19043 -5.17188c1.99707 -3.48145 2.99512 -7.6543 2.99512 -12.5693v-3.91699h40.1152c0 17.6641 -4.19824 30.541 -12.5439 38.5791c-8.39648 8.08984 -21.9648 12.1094 -40.7041 12.1094
c-18.0986 0 -31.6924 -4.37793 -40.5762 -13.1328c-8.88281 -8.75488 -13.3369 -21.5039 -13.3369 -38.2461c0 -9.67676 1.66406 -17.5107 4.96582 -23.501c3.30273 -5.99023 7.4502 -10.8037 12.416 -14.4385c5.01758 -3.68652 10.3936 -6.68164 16.2559 -9.01172
c5.8623 -2.30371 11.2646 -4.60742 16.2568 -6.80957c4.99121 -2.20117 9.08789 -4.88965 12.4414 -8.0127c3.30176 -3.14844 4.94043 -7.42383 4.94043 -12.7998c0 -4.42871 -1.20312 -8.21777 -3.60938 -11.2637c-2.33008 -3.07227 -5.78613 -4.63379 -10.2402 -4.63379
c-4.14746 0 -7.47559 1.43359 -10.1377 4.27539c-2.58496 2.79004 -3.89062 7.78223 -3.89062 14.8477v3.8916h-41.4727v-5.78613c0 -8.60156 1.20312 -15.7949 3.66113 -21.6826c2.45801 -5.83691 6.04199 -10.5225 10.752 -14.1572
c4.65918 -3.63477 10.3936 -6.14355 17.2539 -7.62891c6.86133 -1.45898 14.6953 -2.17578 23.6553 -2.17578c18.8408 0 33.2793 3.94238 43.2891 11.8525c10.0098 7.96191 14.9502 20.6338 14.9502 38.1699zM333.106 223.232c0 7.19336 -0.895508 13.9004 -2.73926 20.0186
c-1.84277 6.14453 -4.76172 11.4941 -8.65234 16.0254c-3.8916 4.53125 -8.85742 8.08984 -14.8477 10.7266c-5.99121 2.58594 -13.0566 3.8916 -21.1973 3.8916h-64.3076v-164.506h42.8545v62.6943h15.002c17.6387 0 31.0527 4.25 40.1924 12.7744
c9.13867 8.52539 13.6953 21.3252 13.6953 38.375zM442.316 109.389v34.9951h-52.7617v129.511h-42.8545v-164.506h95.6162z" />
    <glyph glyph-name="uniF11E" unicode="&#xf11e;" 
d="M391.202 394.77c18.9609 -2.28711 37.7686 -10.6504 52.7871 -25.6855c33.707 -33.6729 11.3662 -61.8496 -19.7627 -92.9795c-31.1641 -31.1465 -59.29 -53.4531 -92.9795 -19.7803c-14.0635 14.0459 -22.2207 31.3857 -25.1904 49.0664
c-27.375 -20.9912 -56.6445 -47.1211 -86.0674 -76.5605c-30.0547 -30.0547 -56.5928 -59.8701 -77.8242 -87.7402c17.5791 -3.00391 34.7646 -11.2129 48.7256 -25.1729c33.6553 -33.6553 11.332 -61.8496 -19.7969 -92.9619
c-31.1475 -31.1299 -59.29 -53.4531 -92.9629 -19.7637c-18.0391 18.0391 -26.709 41.4551 -26.3672 64.1025c-6.26367 46.8652 40.2598 132.438 118.783 210.961c84.3271 84.3096 176.726 131.771 220.655 116.515zM411.017 165.734h-176.879v53.8281l-107.656 -107.64
l107.656 -107.656v53.8115h176.879v107.656zM445.149 165.734v-107.656h-159.812v-53.8115l-107.657 107.656l107.657 107.64v-53.8281h159.812z" />
    <glyph glyph-name="uniF120" unicode="&#xf120;" 
d="M376.917 38.5703l10.1377 -34.543v-16.8271h-261.052v16.8447l12.1348 34.5254l-104.004 -0.169922v221.866h119.466v136.533h204.801v-136.533h119.466v-221.866zM170.667 379.733v-170.667h170.666v170.667h-170.666zM179.968 89.958l-26.5898 -75.7754h205.227
l-19.8652 75.7754h-158.771z" />
    <glyph glyph-name="uniF123" unicode="&#xf123;" 
d="M256 405.333c-117.632 0 -213.333 -95.7012 -213.333 -213.333s95.7012 -213.333 213.333 -213.333s213.333 95.7012 213.333 213.333s-95.7012 213.333 -213.333 213.333zM256 448v0c141.376 0 256 -114.624 256 -256s-114.624 -256 -256 -256s-256 114.624 -256 256
s114.624 256 256 256zM426.667 192h-170.667v170.667c94.251 0 170.667 -76.416 170.667 -170.667z" />
    <glyph glyph-name="uniF122" unicode="&#xf122;" 
d="M256 294.4c-56.4736 0 -102.4 -45.9268 -102.4 -102.4s45.9268 -102.4 102.4 -102.4s102.4 45.9268 102.4 102.4s-45.9268 102.4 -102.4 102.4zM256 320v0c70.707 0 128 -57.3184 128 -128c0 -70.707 -57.293 -128 -128 -128c-70.6816 0 -128 57.293 -128 128
c0 70.6816 57.3184 128 128 128z" />
    <glyph glyph-name="uniF10E" unicode="&#xf10e;" 
d="M76.7998 343.022h358.4l-179.2 -190.327zM68.2666 318.225l187.733 -206.933l187.733 206.933v-277.247h-375.467v277.247z" />
    <glyph glyph-name="uniF10B" unicode="&#xf10b;" 
d="M384 320h-256v-256h256v256zM409.6 345.6v0v-307.199h-307.199v307.199h307.199z" />
    <glyph glyph-name="uniF12A" unicode="&#xf12a;" 
d="M89.5996 235.315l32.0264 46.2842l134.374 -107.059l134.374 107.033l32.0264 -46.3105l-166.4 -132.863l-0.0507812 0.0253906v-0.0253906z" />
    <glyph glyph-name="uniF114" unicode="&#xf114;" 
d="M512 133.12l-145.92 -5.12012l43.5195 -125.44l-115.199 79.3604l-58.8809 -120.32l-30.7197 128l-130.56 -58.8799l66.5596 115.2l-140.8 30.7197l133.12 48.6406l-84.4805 104.96l138.24 -38.4004l7.67969 130.561l76.8008 -110.08l99.8398 94.7197l-17.9199 -130.56
l143.359 15.3594l-107.52 -87.04zM256 102.4c14.1572 0 25.5996 10.291 25.5996 23.04c0 12.6973 -11.4424 23.0137 -25.5996 23.0137c-14.1309 0 -25.5996 -10.3164 -25.5996 -23.0137c0 -12.749 11.4688 -23.04 25.5996 -23.04zM273.92 171.52l7.67969 110.08h-51.1992
l10.2393 -110.08h33.2803z" />
    <glyph glyph-name="uniF107" unicode="&#xf107;" 
d="M366.08 76.7998c-28.1602 -28.1602 -66.5605 -46.0801 -107.521 -43.5195c-43.5195 0 -81.9199 15.3594 -110.079 43.5195c7.67969 5.12012 20.4795 10.2402 33.2793 15.3604c35.8398 12.7998 46.0801 23.04 46.0801 46.0801v2.55957
c-17.9199 17.9199 79.3604 17.9199 58.8799 0v-2.55957c0 -23.04 10.2402 -33.2803 46.0801 -46.0801c12.7998 -5.12012 23.04 -10.2402 33.2803 -15.3604zM327.68 209.92c0 -40.96 -33.2793 -97.2803 -71.6797 -97.2803c-40.96 0 -71.6797 58.8799 -71.6797 97.2803
s30.7197 71.6797 71.6797 71.6797s71.6797 -33.2793 71.6797 -71.6797zM256 17.9199c-94.7197 0 -174.08 76.7998 -174.08 174.08c0 94.7197 76.7998 174.08 174.08 174.08c94.7197 0 174.08 -76.7998 174.08 -174.08c0 -94.7197 -79.3604 -174.08 -174.08 -174.08z
M256 340.48c-81.9199 0 -148.48 -66.5605 -148.48 -148.48s66.5605 -148.48 148.48 -148.48s148.48 66.5605 148.48 148.48s-66.5605 148.48 -148.48 148.48zM273.92 238.08v-64h-64h-145.92v64h102.4l-148.48 145.92l43.5205 46.0801l148.479 -148.48v102.4h64v-145.92z
" />
    <glyph glyph-name="uniF11C" unicode="&#xf11c;" 
d="M149.164 245.232c12.4404 0 13.7461 -11.3145 13.7461 -53.2197c0 -41.9307 -1.30566 -53.1943 -13.7461 -53.1943c-12.4414 0 -13.7471 11.2637 -13.7471 53.1943c0 41.9053 1.30566 53.2197 13.7471 53.2197zM255.987 435.2l243.188 -243.188l-243.188 -243.188
l-243.188 243.188zM149.164 111.454c41.4697 0 55.6768 22.5518 55.6768 80.5586c0 57.9814 -14.207 80.5596 -55.6768 80.5596c-41.4961 0 -55.6777 -22.5781 -55.6777 -80.5596s14.1816 -80.5586 55.6777 -80.5586zM308.926 235.224h0.0253906v34.3018h-101.755v-34.3018
h30.5645v-120.775h40.5996v120.775h30.5654zM366.958 111.454c25.9824 0 51.5303 10.418 51.5303 53.834v11.5195h-39.2949c0 -29.3105 -2.17578 -37.9893 -12.2354 -37.9893c-12.4414 0 -13.7471 11.2637 -13.7471 53.1943s1.30566 53.2197 13.7471 53.2197
c7.8584 0 11.1348 -5.19629 11.1348 -22.8086v-8.70312h39.3203v9.77832c0 29.9512 -13.7725 49.0732 -50.4551 49.0732c-42.1611 0 -55.7031 -21.2725 -55.7031 -80.5596c0 -57.751 10.0605 -80.5586 55.7031 -80.5586z" />
    <glyph glyph-name="uniF11D" unicode="&#xf11d;" 
d="M391.202 394.77c18.9609 -2.28711 37.7686 -10.6504 52.8047 -25.6855c33.6895 -33.6729 11.3486 -61.8496 -19.7803 -92.9795c-31.1641 -31.1465 -59.29 -53.4531 -92.9795 -19.7803c-14.0459 14.0459 -22.2207 31.3857 -25.1738 49.0664
c-27.3916 -20.9912 -56.6611 -47.1211 -86.084 -76.5605c-30.0547 -30.0371 -56.5928 -59.8525 -77.8242 -87.7402c17.5791 -2.98633 34.7646 -11.1953 48.7256 -25.1562c33.6553 -33.6553 11.332 -61.8496 -19.7969 -92.9619
c-31.1475 -31.1299 -59.29 -53.4531 -92.9629 -19.7627c-18.0391 18.0215 -26.709 41.4375 -26.3672 64.1016c-6.26367 46.8652 40.2598 132.421 118.783 210.944c84.3271 84.3096 176.726 131.771 220.655 116.515z" />
    <glyph glyph-name="uniF113" unicode="&#xf113;" 
d="M394.316 182.477c-5.29883 -10.5469 -65.8682 -66.457 -95.0781 -28.7998c-40.9346 52.7871 -95.0781 28.7998 -95.0781 28.7998v146.253s54.1436 24.0127 95.0781 -28.7998c29.21 -37.6572 89.7793 18.2529 95.0781 28.7998v-146.253zM181.675 331.45h-25.5996v-281.601
h25.5996v281.601z" />
    <glyph glyph-name="uniF104" unicode="&#xf104;" 
d="M422.4 71.9355l-32.0264 -46.3096l-134.374 107.059l-134.374 -107.033l-32.0264 46.3359l166.4 132.864l0.0507812 -0.0263672v0.0263672zM422.4 225.562l-32.0264 -46.3359l-134.374 107.085l-134.374 -107.06l-32.0264 46.3359l166.4 132.864l0.0507812 -0.0253906
v0.0253906z" />
    <glyph glyph-name="uniF117" unicode="&#xf117;" 
d="M435.2 335.36c-10.8037 0 -19.5586 -11.6914 -19.627 -26.0615c0 -14.3701 8.75488 -26.0605 19.5586 -26.0605v-26.0605c-10.7861 0 -19.5586 -11.6904 -19.5586 -26.0781c0 -14.3525 8.77246 -26.0605 19.5586 -26.0605v-26.0781
c-10.8037 0 -19.5586 -11.6904 -19.5586 -26.0439c0 -14.3525 8.75488 -26.0771 19.5586 -26.0771v-26.0615c-10.8037 0 -19.5586 -11.6562 -19.5586 -26.043c0 -14.3359 8.75488 -26.0439 19.5586 -26.0439v-35.8574h-35.8574c0 10.8037 -11.6738 19.5586 -26.0439 19.5586
s-26.0771 -8.75488 -26.0771 -19.5586h-26.0273c0 10.8037 -11.707 19.5586 -26.0605 19.5586c-14.3525 0 -26.0605 -8.75488 -26.0605 -19.5586h-26.0605c0 10.7861 -11.6914 19.5586 -26.0615 19.5586s-26.0605 -8.77246 -26.0605 -19.5586h-26.0439
c0 10.8037 -11.7246 19.5586 -26.0771 19.5586c-14.3535 0 -26.0615 -8.75488 -26.0615 -19.5586h-35.8398v35.8574c10.8037 0 19.5586 11.6738 19.5586 26.0439s-8.75488 26.043 -19.5586 26.043v26.0615c10.8037 0 19.5586 11.7246 19.5586 26.0771
c0 14.3535 -8.75488 26.0439 -19.5586 26.0439v26.0781c10.7861 0 19.5586 11.708 19.5586 26.0605c0 14.3877 -8.77246 26.0781 -19.5586 26.0781v26.0605c10.8037 0 19.5586 11.6904 19.5586 26.0605s-8.75488 26.0615 -19.5586 26.0615v35.8398h35.8398
c0 -10.7861 11.708 -19.5586 26.0615 -19.5586c14.3525 0 26.0771 8.77246 26.0771 19.5586h26.0781c0 -10.7861 11.7246 -19.5586 26.0947 -19.5586s26.0615 8.77246 26.0615 19.5586h26.0771c0 -10.8037 11.6572 -19.5586 26.0439 -19.5586
c14.3359 0 26.0439 8.77246 26.0439 19.5586h26.0605c0 -10.8037 11.6562 -19.5586 26.0605 -19.5586c14.3359 0 26.0615 8.77246 26.0615 19.5586h35.8398v-35.8398zM310.784 160.427l82.2441 62.3447l-103.202 2.06445l-33.8262 97.4854l-33.8428 -97.4854
l-103.202 -2.06445l82.2607 -62.3447l-29.8838 -98.7646l84.668 58.9648l84.668 -58.9648z" />
    <glyph glyph-name="uniF100" unicode="&#xf100;" 
d="M307.2 275.2c0 -28.2627 -22.9375 -51.2002 -51.2002 -51.2002s-51.2002 22.9375 -51.2002 51.2002c0 28.2617 22.9375 51.2002 51.2002 51.2002s51.2002 -22.9385 51.2002 -51.2002zM375.467 272.504c0 65.9795 -53.4873 119.466 -119.467 119.466
s-119.467 -53.4863 -119.467 -119.466c0 -59.7334 119.467 -251.171 119.467 -314.607c0 63.4365 119.467 254.856 119.467 314.607z" />
    <glyph glyph-name="uniF116" unicode="&#xf116;" 
d="M230.4 268.8v128h51.1992v-128h-51.1992zM332.8 166.4v51.1992h128v-51.1992h-128zM230.4 -12.7998v128h51.1992v-128h-51.1992zM51.2002 166.4v51.1992h128v-51.1992h-128zM183.594 228.207l-90.5273 90.5273l36.2041 36.2031l90.5264 -90.5264zM292.181 264.438
l90.5469 90.4834l36.1934 -36.2197l-90.5469 -90.4824zM328.408 155.787l90.4902 -90.4902l-36.2031 -36.2041l-90.4912 90.4912zM219.798 119.581l-90.4902 -90.4902l-36.2041 36.2031l90.4912 90.4912z" />
    <glyph glyph-name="uniF12D" unicode="&#xf12d;" 
d="M422.4 148.71l-32.0264 -46.3096l-134.374 107.059l-134.374 -107.033l-32.0264 46.3359l166.4 132.838l0.0507812 -0.0253906v0.0253906z" />
    <glyph glyph-name="uniF115" unicode="&#xf115;" 
d="M256 384c106.086 0 192 -85.9395 192 -192s-85.9141 -192 -192 -192c-106.035 0 -192 85.9395 -192 192s85.9648 192 192 192zM265.216 64.2051l39.8594 191.359h-73.0107l-39.834 -191.359h72.9854zM309.068 276.173l10.7266 51.2764h-73.0107l-10.6758 -51.2764h72.96z
" />
    <glyph glyph-name="uniF11A" unicode="&#xf11a;" 
d="M448 -38.4004h-384v384h384v-384zM89.5996 -12.7998h332.801v332.8h-332.801v-332.8zM64 243.2v25.5996h25.5996v-25.5996h-25.5996zM448 243.2h-25.5996v25.5996h25.5996v-25.5996zM396.8 243.2h-25.5996v25.5996h25.5996v-25.5996zM345.6 243.2h-25.5996v25.5996
h25.5996v-25.5996zM294.4 243.2h-25.6006v25.5996h25.6006v-25.5996zM243.2 243.2h-25.6006v25.5996h25.6006v-25.5996zM192 243.2h-25.5996v25.5996h25.5996v-25.5996zM140.8 243.2h-25.5996v25.5996h25.5996v-25.5996zM448 256zM64 166.4v25.5996h25.5996v-25.5996
h-25.5996zM448 166.4h-25.5996v25.5996h25.5996v-25.5996zM396.8 166.4h-25.5996v25.5996h25.5996v-25.5996zM345.6 166.4h-25.5996v25.5996h25.5996v-25.5996zM294.4 166.4h-25.6006v25.5996h25.6006v-25.5996zM243.2 166.4h-25.6006v25.5996h25.6006v-25.5996zM192 166.4
h-25.5996v25.5996h25.5996v-25.5996zM140.8 166.4h-25.5996v25.5996h25.5996v-25.5996zM448 179.2zM64 89.5996v25.6006h25.5996v-25.6006h-25.5996zM448 89.5996h-25.5996v25.6006h25.5996v-25.6006zM396.8 89.5996h-25.5996v25.6006h25.5996v-25.6006zM345.6 89.5996
h-25.5996v25.6006h25.5996v-25.6006zM294.4 89.5996h-25.6006v25.6006h25.6006v-25.6006zM243.2 89.5996h-25.6006v25.6006h25.6006v-25.6006zM192 89.5996h-25.5996v25.6006h25.5996v-25.6006zM140.8 89.5996h-25.5996v25.6006h25.5996v-25.6006zM448 102.4zM64 12.7998
v25.6006h25.5996v-25.6006h-25.5996zM448 12.7998h-25.5996v25.6006h25.5996v-25.6006zM396.8 12.7998h-25.5996v25.6006h25.5996v-25.6006zM345.6 12.7998h-25.5996v25.6006h25.5996v-25.6006zM294.4 12.7998h-25.6006v25.6006h25.6006v-25.6006zM243.2 12.7998h-25.6006
v25.6006h25.6006v-25.6006zM192 12.7998h-25.5996v25.6006h25.5996v-25.6006zM140.8 12.7998h-25.5996v25.6006h25.5996v-25.6006zM448 25.5996zM448 248.325zM448 340.475zM64 345.6v51.2002h384v-51.2002h-384zM268.8 335.36
c12.7998 -2.56055 28.1602 -7.68066 38.4004 -20.4805c25.5996 -25.5996 7.67969 -46.0801 -15.3604 -66.5596c-23.04 -23.04 -43.5195 -40.96 -69.1201 -15.3604c-10.2393 10.2402 -15.3594 23.04 -17.9199 35.8398c-20.4795 -15.3594 -43.5195 -35.8398 -64 -58.8799
c-23.04 -23.04 -43.5195 -46.0801 -58.8799 -66.5596c12.7998 -2.56055 25.5996 -7.68066 35.8398 -17.9199c25.6006 -25.6006 7.68066 -46.0801 -15.3594 -69.1201s-43.5205 -40.96 -69.1201 -15.3604c-15.3604 15.3604 -20.4805 30.7197 -20.4805 48.6396
c-5.12012 35.8408 30.7197 99.8408 89.6006 158.721c64 61.4395 133.119 97.2793 166.399 87.04z" />
    <glyph glyph-name="uniF128" unicode="&#xf128;" 
d="M294.197 177.767c-32.2451 -32.2588 -84.7646 -32.2637 -117.029 0.000976562c-32.2637 32.2363 -32.2627 84.7822 -0.00292969 117.028c32.2451 32.2314 84.7744 32.2344 117.039 -0.00195312c32.2354 -32.2363 32.2393 -84.7812 -0.00683594 -117.027zM318.336 153.634
c45.5879 45.5869 45.5908 119.709 -0.00683594 165.306c-45.6016 45.5635 -119.706 45.5664 -165.295 -0.00195312c-45.6064 -45.5879 -45.6055 -119.741 -0.00195312 -165.306c45.6016 -45.6016 119.716 -45.6064 165.304 0.00195312zM408.952 87.9971l-25.001 -25.0078
l-93.5156 93.4883l25.002 25.0078z" />
    <glyph glyph-name="uniF10F" unicode="&#xf10f;" 
d="M332.8 396.8v-51.2002h102.38l0.0205078 -102.404l51.2002 0.00976562l-0.0302734 153.595h-153.57zM237.896 184.501l36.207 -36.2021l204.774 204.801l-36.2061 36.2012zM435.2 227.2h-51.2002v-137.601h-256v204.801h189.425v51.1992h-240.625v-307.199h358.4v188.8z
" />
    <glyph glyph-name="uniF129" unicode="&#xf129;" horiz-adv-x="511" 
d="M415.948 225.895l0.0517578 -67.7373l-11.29 -11.3408l-42.5986 -4.71094c-5.8623 -16.1533 -14.5664 -31.2061 -25.8555 -44.5947l17.2539 -39.3984l-4.12109 -15.4629l-58.6758 -33.8428l-15.4619 4.04492l-25.498 34.7129
c-17.2031 -2.99512 -34.6367 -2.99512 -51.4814 -0.0507812l-25.4717 -34.6621l-15.4111 -4.04492l-58.7266 33.8682l-4.14746 15.4375l17.3057 39.3984c-5.47852 6.47656 -10.5469 13.4395 -14.9502 21.0938c-4.40332 7.60352 -7.91016 15.4883 -10.752 23.4502
l-42.7773 4.76172l-11.3408 11.3408l0.0507812 67.7373l11.2383 11.3154l42.7266 4.73535c5.8877 16.1025 14.5918 31.1553 25.8301 44.4932l-17.3057 39.501l4.17285 15.4111l58.6758 33.8428l15.4111 -4.12109l25.4463 -34.5859
c17.2285 3.09766 34.6875 3.14844 51.5322 0.102539l25.4209 34.5342l15.4629 4.0957l58.6748 -33.8428l4.14746 -15.4365l-17.2539 -39.4502c5.45215 -6.45117 10.5469 -13.4395 14.9502 -21.0938c4.40332 -7.60352 7.91016 -15.5137 10.8027 -23.501l42.752 -4.71094z
M265.241 120.602c39.4492 22.7588 52.9668 73.1904 30.208 112.614c-22.7842 39.4502 -73.1904 52.9414 -112.64 30.1826c-39.3984 -22.7588 -52.9414 -73.1904 -30.1826 -112.614c22.7842 -39.4238 73.2158 -52.9414 112.614 -30.1826z" />
    <glyph glyph-name="uniF10D" unicode="&#xf10d;" 
d="M97.5312 116.804l182.877 182.903l83.2217 -83.3242l-182.801 -182.801l-107.438 -24.1904zM416.389 318.01c13.4902 -13.4902 13.542 -35.3262 0.0253906 -48.791l-29.0801 -29.1055l-83.2725 83.2461l29.0801 29.1572
c13.542 13.4395 35.4541 13.3623 48.8936 -0.102539z" />
    <glyph glyph-name="uniF119" unicode="&#xf119;" 
d="M448 -38.4004h-384v384h384v-384zM89.5996 -12.7998h332.801v332.8h-332.801v-332.8zM64 243.2v25.5996h25.5996v-25.5996h-25.5996zM448 243.2h-25.5996v25.5996h25.5996v-25.5996zM396.8 243.2h-25.5996v25.5996h25.5996v-25.5996zM345.6 243.2h-25.5996v25.5996
h25.5996v-25.5996zM294.4 243.2h-25.6006v25.5996h25.6006v-25.5996zM243.2 243.2h-25.6006v25.5996h25.6006v-25.5996zM192 243.2h-25.5996v25.5996h25.5996v-25.5996zM140.8 243.2h-25.5996v25.5996h25.5996v-25.5996zM448 256zM64 166.4v25.5996h25.5996v-25.5996
h-25.5996zM448 166.4h-25.5996v25.5996h25.5996v-25.5996zM396.8 166.4h-25.5996v25.5996h25.5996v-25.5996zM345.6 166.4h-25.5996v25.5996h25.5996v-25.5996zM294.4 166.4h-25.6006v25.5996h25.6006v-25.5996zM243.2 166.4h-25.6006v25.5996h25.6006v-25.5996zM192 166.4
h-25.5996v25.5996h25.5996v-25.5996zM140.8 166.4h-25.5996v25.5996h25.5996v-25.5996zM448 179.2zM64 89.5996v25.6006h25.5996v-25.6006h-25.5996zM448 89.5996h-25.5996v25.6006h25.5996v-25.6006zM396.8 89.5996h-25.5996v25.6006h25.5996v-25.6006zM345.6 89.5996
h-25.5996v25.6006h25.5996v-25.6006zM294.4 89.5996h-25.6006v25.6006h25.6006v-25.6006zM243.2 89.5996h-25.6006v25.6006h25.6006v-25.6006zM192 89.5996h-25.5996v25.6006h25.5996v-25.6006zM140.8 89.5996h-25.5996v25.6006h25.5996v-25.6006zM448 102.4zM64 12.7998
v25.6006h25.5996v-25.6006h-25.5996zM448 12.7998h-25.5996v25.6006h25.5996v-25.6006zM396.8 12.7998h-25.5996v25.6006h25.5996v-25.6006zM345.6 12.7998h-25.5996v25.6006h25.5996v-25.6006zM294.4 12.7998h-25.6006v25.6006h25.6006v-25.6006zM243.2 12.7998h-25.6006
v25.6006h25.6006v-25.6006zM192 12.7998h-25.5996v25.6006h25.5996v-25.6006zM140.8 12.7998h-25.5996v25.6006h25.5996v-25.6006zM448 25.5996zM448 248.325zM448 340.475zM64 345.6v51.2002h384v-51.2002h-384zM243.2 168.96l135.68 138.24l61.4404 -61.4404
l-135.681 -138.24l-79.3594 -17.9199zM483.84 320c10.2402 -10.2402 10.2402 -25.5996 0 -33.2803l-23.04 -23.04l-61.4395 58.8799l23.04 23.04c10.2393 10.2402 25.5996 10.2402 35.8398 0z" />
    <glyph glyph-name="uniF126" unicode="&#xf126;" 
d="M397.747 152.781l36.9922 -10.2656c-22.1445 -80.1289 -95.6416 -136.115 -178.739 -136.115c-75.3662 0 -142.413 46.3096 -170.829 114.662l-27.1357 -47.002l-33.2539 19.2002l60.7998 105.318l105.318 -60.7998l-19.2002 -33.2549l-50.3809 29.082
c23.04 -53.0684 75.6992 -88.8066 134.682 -88.8066c65.8691 0 124.186 44.3906 141.747 107.981zM453.965 309.939l33.2539 -19.2256l-60.7998 -105.293l-105.318 60.7998l19.2002 33.2549l50.4062 -29.082c-23.0654 53.0684 -75.7246 88.8066 -134.707 88.8066
c-65.8945 0 -124.16 -44.3906 -141.722 -107.93l-37.0176 10.2139c22.1445 80.1289 95.6416 136.115 178.739 136.115c75.3408 0 142.387 -46.2842 170.829 -114.662z" />
    <glyph glyph-name="uniF111" unicode="&#xf111;" 
d="M435.2 371.2l-133.99 -184.602v-199.398l-90.3936 54.8604l-0.0263672 144.513l-133.99 184.627h179.2h179.2z" />
    <glyph glyph-name="uniF101" unicode="&#xf101;" 
d="M89.5996 312.115l32.0264 46.2852l134.374 -107.034l134.374 107.034l32.0264 -46.3359l-166.4 -132.864l-0.0253906 0.0253906v-0.0253906zM89.5996 158.516l32.0264 46.2842l134.374 -107.033l134.374 107.033l32.0264 -46.3359l-166.4 -132.864l-0.0253906 0.0263672
v-0.0263672z" />
    <glyph glyph-name="uniF11F" unicode="&#xf11f;" 
d="M460.8 237.44l-0.0507812 -90.9316h-159.309v-159.309h-90.9316v159.309h-159.309v90.9824h159.309v159.309h90.9824l-0.0507812 -159.334z" />
    <glyph glyph-name="uniF125" unicode="&#xf125;" 
d="M256 19.7373c-94.9756 0 -172.263 77.2871 -172.263 172.263s77.2871 172.263 172.263 172.263c95.002 0 172.263 -77.2871 172.263 -172.263c0 -95.002 -77.2607 -172.263 -172.263 -172.263zM256 339.737c-81.459 0 -147.737 -66.2783 -147.737 -147.737
s66.2783 -147.737 147.737 -147.737s147.737 66.3037 147.737 147.737c0 81.459 -66.2783 147.737 -147.737 147.737zM160 192c0 64 32 96 96 96s96 -32 96 -96s-32 -96 -96 -96s-96 32 -96 96z" />
    <glyph glyph-name="uniF106" unicode="&#xf106;" 
d="M102.4 164.557v54.8867h214.349l-82.0996 100.685l45.21 30.541l129.74 -158.669l-0.0253906 -0.0507812h0.0253906l-129.792 -158.618l-45.1836 30.541l82.125 100.685h-214.349z" />
    <glyph glyph-name="uniF11B" unicode="&#xf11b;" 
d="M448 -38.4004h-384v384h384v-384zM89.5996 -12.7998h332.801v332.8h-332.801v-332.8zM64 243.2v25.5996h25.5996v-25.5996h-25.5996zM448 243.2h-25.5996v25.5996h25.5996v-25.5996zM396.8 243.2h-25.5996v25.5996h25.5996v-25.5996zM345.6 243.2h-25.5996v25.5996
h25.5996v-25.5996zM294.4 243.2h-25.6006v25.5996h25.6006v-25.5996zM243.2 243.2h-25.6006v25.5996h25.6006v-25.5996zM192 243.2h-25.5996v25.5996h25.5996v-25.5996zM140.8 243.2h-25.5996v25.5996h25.5996v-25.5996zM448 256zM64 166.4v25.5996h25.5996v-25.5996
h-25.5996zM448 166.4h-25.5996v25.5996h25.5996v-25.5996zM396.8 166.4h-25.5996v25.5996h25.5996v-25.5996zM345.6 166.4h-25.5996v25.5996h25.5996v-25.5996zM294.4 166.4h-25.6006v25.5996h25.6006v-25.5996zM243.2 166.4h-25.6006v25.5996h25.6006v-25.5996zM192 166.4
h-25.5996v25.5996h25.5996v-25.5996zM140.8 166.4h-25.5996v25.5996h25.5996v-25.5996zM448 179.2zM64 89.5996v25.6006h25.5996v-25.6006h-25.5996zM448 89.5996h-25.5996v25.6006h25.5996v-25.6006zM396.8 89.5996h-25.5996v25.6006h25.5996v-25.6006zM345.6 89.5996
h-25.5996v25.6006h25.5996v-25.6006zM294.4 89.5996h-25.6006v25.6006h25.6006v-25.6006zM243.2 89.5996h-25.6006v25.6006h25.6006v-25.6006zM192 89.5996h-25.5996v25.6006h25.5996v-25.6006zM140.8 89.5996h-25.5996v25.6006h25.5996v-25.6006zM448 102.4zM64 12.7998
v25.6006h25.5996v-25.6006h-25.5996zM448 12.7998h-25.5996v25.6006h25.5996v-25.6006zM396.8 12.7998h-25.5996v25.6006h25.5996v-25.6006zM345.6 12.7998h-25.5996v25.6006h25.5996v-25.6006zM294.4 12.7998h-25.6006v25.6006h25.6006v-25.6006zM243.2 12.7998h-25.6006
v25.6006h25.6006v-25.6006zM192 12.7998h-25.5996v25.6006h25.5996v-25.6006zM140.8 12.7998h-25.5996v25.6006h25.5996v-25.6006zM448 25.5996zM448 248.325zM448 340.475zM64 345.6v51.2002h384v-51.2002h-384zM68.5684 96.8516l16.4639 -19.6035l64 53.75
l-16.4639 19.6035zM117.76 140.8c0 15.36 7.68001 23.04 23.04 23.04c15.36 0 23.04 -7.68001 23.04 -23.04c0 -15.36 -7.68001 -23.04 -23.04 -23.04c-15.36 0 -23.04 7.68001 -23.04 23.04zM137.695 153.218l6.20898 -24.8359l102.4 25.6006l-6.20898 24.835z
M220.16 166.4c0 15.36 7.68001 23.04 23.04 23.04c15.36 0 23.04 -7.68001 23.04 -23.04s-7.68001 -23.04 -23.04 -23.04c-15.36 0 -23.04 7.68001 -23.04 23.04zM233.633 174.904l19.1338 -17.0078l102.4 115.199l-19.1338 17.0078zM322.56 281.6
c0 15.36 7.68001 23.04 23.04 23.04s23.04 -7.68001 23.04 -23.04s-7.68001 -23.04 -23.04 -23.04s-23.04 7.68001 -23.04 23.04zM356.789 287.816l-22.3779 -12.4326l64 -115.2l22.3779 12.4326zM386.56 166.4c0 15.36 7.68001 23.04 23.04 23.04
s23.04 -7.68001 23.04 -23.04s-7.68001 -23.04 -23.04 -23.04s-23.04 7.68001 -23.04 23.04z" />
    <glyph glyph-name="uniF12C" unicode="&#xf12c;" 
d="M212.71 358.4l132.89 -166.35h-0.0253906l0.0253906 -0.0507812l-132.838 -166.4l-46.3359 32.0264l107.033 134.374l-107.059 134.374z" />
    <glyph glyph-name="uniF12B" unicode="&#xf12b;" 
d="M299.29 358.4l46.3096 -32.0264l-107.059 -134.374l107.033 -134.374l-46.3359 -32.0264l-132.838 166.4l0.0253906 0.0507812h-0.0253906z" />
  </font>
</defs>
</svg>
